<svg width="34" height="34" viewBox="0 0 34 34" fill="none" xmlns="http://www.w3.org/2000/svg">
<circle cx="17" cy="17" r="17" fill="white"/>
<path d="M14.4905 13.25C14.8362 13.25 15.1557 13.2763 15.449 13.355C15.7415 13.4075 15.9822 13.517 16.196 13.6482C16.4105 13.7802 16.5687 13.9677 16.6767 14.2085C16.7817 14.4485 16.8387 14.7418 16.8387 15.0612C16.8387 15.4332 16.7592 15.7528 16.5717 15.9928C16.4105 16.2327 16.1472 16.4472 15.824 16.6055C16.2785 16.7375 16.6242 16.9775 16.835 17.297C17.0457 17.6165 17.1807 18.0147 17.1807 18.4692C17.1807 18.8412 17.102 19.1608 16.967 19.4278C16.8323 19.6965 16.6302 19.9257 16.3805 20.093C16.1405 20.2542 15.8472 20.3855 15.5277 20.465C15.2148 20.5477 14.8929 20.592 14.5692 20.597L11 20.6023V13.25H14.4905ZM14.2767 16.2335C14.5692 16.2335 14.8092 16.1547 14.9945 16.0197C15.179 15.8847 15.2607 15.647 15.2607 15.3545C15.2607 15.1925 15.2345 15.035 15.182 14.9292C15.1252 14.8221 15.0427 14.7306 14.942 14.663C14.8332 14.6037 14.7169 14.5593 14.5962 14.531C14.4642 14.5048 14.3292 14.5047 14.171 14.5047H12.6275V16.2372C12.6275 16.2335 14.2775 16.2335 14.2775 16.2335H14.2767ZM14.3555 19.3782C14.5167 19.3782 14.675 19.352 14.81 19.3257C14.942 19.2995 15.077 19.2463 15.182 19.1638C15.287 19.0813 15.3695 19.0025 15.449 18.8713C15.5015 18.7392 15.554 18.578 15.554 18.3905C15.554 18.0185 15.449 17.7515 15.2345 17.564C15.0207 17.4028 14.7275 17.324 14.3817 17.324H12.6275V19.3745H14.3562V19.3782H14.3555ZM19.499 19.352C19.7135 19.5657 20.0322 19.6715 20.4575 19.6715C20.75 19.6715 21.017 19.592 21.2315 19.457C21.4452 19.2958 21.5765 19.1375 21.629 18.977H22.934C22.7195 19.6152 22.4 20.0698 21.9755 20.363C21.551 20.6293 21.0432 20.7875 20.4305 20.7875C20.0387 20.7892 19.6501 20.7167 19.2852 20.5738C18.9569 20.4517 18.6639 20.2502 18.4325 19.9872C18.1856 19.7421 18.0023 19.4403 17.8985 19.1082C17.7672 18.7625 17.711 18.3905 17.711 17.9622C17.711 17.564 17.7635 17.1883 17.8985 16.8425C18.0335 16.4975 18.218 16.2035 18.4587 15.9373C18.6987 15.6973 18.992 15.4828 19.3115 15.3507C19.6678 15.2089 20.0478 15.1364 20.4312 15.137C20.8857 15.137 21.284 15.2157 21.6297 15.4032C21.9747 15.5907 22.2425 15.8022 22.4562 16.1217C22.67 16.4142 22.8282 16.76 22.937 17.1328C22.9895 17.5048 23.0157 17.8797 22.9895 18.305H19.127C19.127 18.74 19.2845 19.1375 19.499 19.352ZM21.179 16.553C20.9915 16.3655 20.6975 16.2597 20.3517 16.2597C20.1117 16.2597 19.9272 16.3123 19.766 16.3918C19.6047 16.4705 19.499 16.5793 19.394 16.6842C19.296 16.7872 19.2307 16.9169 19.2065 17.057C19.1795 17.1883 19.154 17.297 19.154 17.402H21.551C21.4985 17.0075 21.3635 16.7405 21.1782 16.553H21.179ZM18.8337 13.757H21.8172V14.4747H18.8337V13.757Z" fill="black"/>
</svg>
