<svg width="35" height="40" viewBox="0 0 35 40" fill="none" xmlns="http://www.w3.org/2000/svg">
<g filter="url(#filter0_ii)">
<path d="M0 1.35101C0 0.604869 0.60487 0 1.35101 0H14.4509C25.4966 0 34.4509 8.9543 34.4509 20C34.4509 31.0457 25.4966 40 14.4509 40H1.35102C0.604872 40 0 39.3951 0 38.649V1.35101Z" fill="url(#paint0_linear)"/>
</g>
<path d="M3.237 21.9223C3.237 21.5629 3.52838 21.2715 3.88782 21.2715H8.67053C12.9483 21.2715 16.4162 24.7393 16.4162 29.0171C16.4162 33.295 12.9483 36.7628 8.67052 36.7628H3.88782C3.52838 36.7628 3.237 36.4714 3.237 36.112V21.9223Z" fill="#101010"/>
<defs>
<filter id="filter0_ii" x="-4" y="-4" width="42.4509" height="48" filterUnits="userSpaceOnUse" color-interpolation-filters="sRGB">
<feFlood flood-opacity="0" result="BackgroundImageFix"/>
<feBlend mode="normal" in="SourceGraphic" in2="BackgroundImageFix" result="shape"/>
<feColorMatrix in="SourceAlpha" type="matrix" values="0 0 0 0 0 0 0 0 0 0 0 0 0 0 0 0 0 0 127 0" result="hardAlpha"/>
<feOffset dx="-4" dy="-4"/>
<feGaussianBlur stdDeviation="2.5"/>
<feComposite in2="hardAlpha" operator="arithmetic" k2="-1" k3="1"/>
<feColorMatrix type="matrix" values="0 0 0 0 0.670588 0 0 0 0 0.662745 0 0 0 0 0.662745 0 0 0 0.5 0"/>
<feBlend mode="normal" in2="shape" result="effect1_innerShadow"/>
<feColorMatrix in="SourceAlpha" type="matrix" values="0 0 0 0 0 0 0 0 0 0 0 0 0 0 0 0 0 0 127 0" result="hardAlpha"/>
<feOffset dx="4" dy="4"/>
<feGaussianBlur stdDeviation="2.5"/>
<feComposite in2="hardAlpha" operator="arithmetic" k2="-1" k3="1"/>
<feColorMatrix type="matrix" values="0 0 0 0 1 0 0 0 0 1 0 0 0 0 1 0 0 0 0.3 0"/>
<feBlend mode="normal" in2="effect1_innerShadow" result="effect2_innerShadow"/>
</filter>
<linearGradient id="paint0_linear" x1="0" y1="0" x2="39.558" y2="34.0702" gradientUnits="userSpaceOnUse">
<stop stop-color="#FFFDFE"/>
<stop offset="1" stop-color="#E9E5E6"/>
</linearGradient>
</defs>
</svg>
