<svg width="34" height="34" viewBox="0 0 34 34" fill="none" xmlns="http://www.w3.org/2000/svg">
<circle cx="17" cy="17" r="17" fill="white"/>
<g clip-path="url(#clip0)">
<path d="M14.2352 11.6738C13.4025 12.1065 12.6828 12.7284 12.1337 13.4894C11.5847 14.2504 11.2216 15.1296 11.0736 16.0562H11.4216C13.6656 16.0042 15.4248 15.8098 16.8616 15.3698C16.2376 14.2634 15.476 13.1778 14.5624 12.0738L14.5616 12.073L14.2352 11.6738Z" fill="black"/>
<path d="M11.0016 16.8562L11 17.0002C11 18.6138 11.6368 20.0786 12.6728 21.157L12.8016 20.8978C12.8088 20.8835 12.8168 20.8696 12.8256 20.8562C14.152 18.8386 15.6528 17.6386 17.3312 17.1002C17.4448 17.0634 17.56 17.0298 17.6752 16.9994C17.5408 16.6913 17.3976 16.3872 17.2456 16.0874C15.6736 16.5938 13.784 16.8018 11.4352 16.8554H11.0024L11.0016 16.8562Z" fill="black"/>
<path d="M13.288 21.7143C14.345 22.549 15.6531 23.002 17 22.9999C17.7144 22.9999 18.4 22.8751 19.0344 22.6463V22.0703C18.8392 20.5223 18.496 19.1023 17.98 17.7471C17.844 17.7807 17.7088 17.8191 17.5752 17.8615C16.1176 18.3295 14.7552 19.3839 13.5072 21.2759L13.2888 21.7143H13.288Z" fill="black"/>
<path d="M19.8344 22.2897C20.6077 21.8748 21.2808 21.2955 21.8063 20.5925C22.3318 19.8896 22.6969 19.0801 22.876 18.2209L22.424 18.0169C21.1232 17.6345 19.9112 17.4777 18.7816 17.6049C19.292 18.9809 19.6352 20.4257 19.8312 21.9953C19.8336 22.0113 19.8344 22.0273 19.8344 22.0449V22.2897Z" fill="black"/>
<path d="M22.9872 17.3935C23.0928 15.8221 22.5739 14.2725 21.5432 13.0815L21.3056 13.3447C20.3696 14.4831 19.3008 15.2727 18.0016 15.8103C18.1712 16.1495 18.3296 16.4911 18.476 16.8375C19.8136 16.6455 21.22 16.8263 22.6768 17.2575C22.6945 17.2627 22.7119 17.2691 22.7288 17.2767L22.9872 17.3935Z" fill="black"/>
<path d="M20.9808 12.5104C19.8842 11.5354 18.4673 10.9978 17 11C16.2976 11 15.624 11.12 14.9976 11.3424L15.18 11.5648C16.156 12.7432 16.9656 13.908 17.6264 15.0992C18.8608 14.6008 19.8392 13.872 20.6936 12.8296C20.6974 12.8247 20.7014 12.8199 20.7056 12.8152L20.9808 12.5112V12.5104Z" fill="black"/>
</g>
<defs>
<clipPath id="clip0">
<rect width="12" height="12" fill="white" transform="translate(11 11)"/>
</clipPath>
</defs>
</svg>
