<svg width="1440" height="698" viewBox="0 0 1440 698" fill="none" xmlns="http://www.w3.org/2000/svg">
<g clip-path="url(#clip0)">
<path d="M1233.41 453.601C1298.52 514.335 1388.29 518.871 1440 510.351V798H398V589.195C408.027 589.195 425.299 585.093 442.217 589.195C479.876 598.324 524.358 667.837 562.126 676.307C654.152 696.948 750.526 548.595 750.526 548.595C750.526 548.595 818.343 461.616 864.291 408.842C909.218 357.241 951.735 328 1043.27 328C1117.2 328 1188.2 411.422 1233.41 453.601Z" fill="#FFFAF4"/>
<path d="M287.099 397.545C197.248 468.164 73.3581 473.438 2 463.532V798H1440V555.208C1426.16 555.208 1402.33 550.439 1378.98 555.208C1327.01 565.824 1265.62 646.65 1213.5 656.5C1086.5 680.5 953.5 508 953.5 508C953.5 508 859.91 406.864 796.5 345.5C734.5 285.5 675.824 251.5 549.5 251.5C447.478 251.5 349.5 348.5 287.099 397.545Z" fill="#FFF9F2"/>
<path d="M392 0C420.419 31.5504 494.606 93.1487 564.008 87.1391C650.759 79.6271 710 55 784.377 78.1247C830.677 92.5199 826.257 137.219 868.137 169.771C910.017 202.323 1092.49 123.197 1092.49 123.197C1092.49 123.197 1221.13 65.6047 1233.59 123.197C1246.06 180.789 1194.7 249.398 1218.14 263.421C1236.88 274.638 1373.86 223.357 1440 196.313" stroke="#E17A0E" stroke-opacity="0.24"/>
<path d="M0 631.669C28.934 607.526 78.6557 572.244 137.925 556.243C205.5 538 322.663 524.964 371.172 599.201C395.132 635.869 369.128 677.5 398 709.5C426.691 741.299 474.941 720.863 511.5 738C543.5 753 552 779.5 567 798" stroke="#E4E4E4"/>
<circle cx="1309.5" cy="143.5" r="4.5" fill="#F9D6FF"/>
<rect x="751.651" y="160.522" width="45.7199" height="45.7199" rx="10" transform="rotate(-35.9958 751.651 160.522)" fill="#9AB1EC"/>
</g>
<defs>
<clipPath id="clip0">
<rect width="1440" height="698" fill="white"/>
</clipPath>
</defs>
</svg>
