<svg width="1024" height="776" viewBox="0 0 1024 776" fill="none" xmlns="http://www.w3.org/2000/svg">
<g clip-path="url(#clip0)">
<rect width="1440" height="792" fill="#FFF9F2"/>
<g opacity="0.03">
<path d="M0 42.001C0 42.001 7.69978 34.144 9.90991 21.34C12.12 8.53599 20.3189 0 20.3189 0" stroke="#FB5D1A" stroke-width="2" stroke-miterlimit="10"/>
<path d="M0 76.921C0 76.921 26.3789 65.863 33.3657 38.024C40.0674 10.961 67.1592 0 67.1592 0" stroke="#FB5D1A" stroke-width="2" stroke-miterlimit="10"/>
<path d="M0 111.841C0 111.841 45.058 97.5819 56.7503 54.805C68.0148 13.58 114 0 114 0" stroke="#FB5D1A" stroke-width="2" stroke-miterlimit="10"/>
<path d="M0 146.858C0 146.858 63.6658 129.301 80.2061 71.586C95.9621 16.102 160.769 0 160.769 0" stroke="#FB5D1A" stroke-width="2" stroke-miterlimit="10"/>
<path d="M0 181.778C0 181.778 82.3449 161.02 103.591 88.3669C123.909 18.721 207.609 0 207.609 0" stroke="#FB5D1A" stroke-width="2" stroke-miterlimit="10"/>
<path d="M0 216.698C0 216.698 101.024 192.739 127.046 105.051C151.857 21.34 254.449 0 254.449 0" stroke="#FB5D1A" stroke-width="2" stroke-miterlimit="10"/>
<path d="M0 251.715C0 251.715 119.632 224.458 150.431 121.929C179.804 23.862 301.29 0 301.29 0" stroke="#FB5D1A" stroke-width="2" stroke-miterlimit="10"/>
<path d="M0 286.635C0 286.635 138.311 256.177 173.887 138.613C207.752 26.481 348.13 0 348.13 0" stroke="#FB5D1A" stroke-width="2" stroke-miterlimit="10"/>
<path d="M0 321.555C0 321.555 156.99 287.896 197.343 155.394C235.699 29.1 394.899 0 394.899 0" stroke="#FB5D1A" stroke-width="2" stroke-miterlimit="10"/>
<path d="M0 356.572C0 356.572 175.598 319.712 220.727 172.175C263.718 31.622 441.739 0 441.739 0" stroke="#FB5D1A" stroke-width="2" stroke-miterlimit="10"/>
<path d="M0 391.492C0 391.492 194.277 351.334 244.183 188.956C291.665 34.241 488.58 0 488.58 0" stroke="#FB5D1A" stroke-width="2" stroke-miterlimit="10"/>
<path d="M0 426.412C0 426.412 212.956 383.053 267.567 205.64C319.612 36.86 535.42 0 535.42 0" stroke="#FB5D1A" stroke-width="2" stroke-miterlimit="10"/>
<path d="M0 461.429C0 461.429 231.564 414.869 291.023 222.518C347.56 39.382 582.189 0 582.189 0" stroke="#FB5D1A" stroke-width="2" stroke-miterlimit="10"/>
<path d="M0 496.349C0 496.349 250.243 446.588 314.408 239.299C375.507 42.001 629.03 0 629.03 0" stroke="#FB5D1A" stroke-width="2" stroke-miterlimit="10"/>
<path d="M0 531.366C0 531.366 268.922 478.307 337.864 256.08C403.454 44.62 675.87 0 675.87 0" stroke="#FB5D1A" stroke-width="2" stroke-miterlimit="10"/>
<path d="M0 566.286C0 566.286 287.53 510.026 361.248 272.861C431.402 47.142 722.71 0 722.71 0" stroke="#FB5D1A" stroke-width="2" stroke-miterlimit="10"/>
<path d="M0 601.206C0 601.206 306.209 541.745 384.704 289.545C459.349 49.761 769.551 0 769.551 0" stroke="#FB5D1A" stroke-width="2" stroke-miterlimit="10"/>
<path d="M0 636.223C0 636.223 324.888 573.464 408.16 306.423C487.296 52.38 816.32 0 816.32 0" stroke="#FB5D1A" stroke-width="2" stroke-miterlimit="10"/>
<path d="M0 671.143C0 671.143 343.496 605.183 431.544 323.107C515.244 54.902 863.16 0 863.16 0" stroke="#FB5D1A" stroke-width="2" stroke-miterlimit="10"/>
<path d="M0 706.063C0 706.063 362.175 636.902 455 339.888C543.191 57.521 910 0 910 0" stroke="#FB5D1A" stroke-width="2" stroke-miterlimit="10"/>
<path d="M0 741.079C0 741.079 380.854 668.718 478.385 356.669C571.139 60.14 956.841 0 956.841 0" stroke="#FB5D1A" stroke-width="2" stroke-miterlimit="10"/>
<path d="M0 775.999C0 775.999 399.462 700.34 501.841 373.45C599.086 62.662 1003.61 0 1003.61 0" stroke="#FB5D1A" stroke-width="2" stroke-miterlimit="10"/>
<path d="M1024 733.999C1024 733.999 1016.3 741.856 1014.09 754.66C1011.88 767.561 1003.68 775.903 1003.68 775.903" stroke="#FB5D1A" stroke-width="2" stroke-miterlimit="10"/>
<path d="M1024 699.079C1024 699.079 997.621 710.137 990.634 737.976C983.933 765.039 956.841 776 956.841 776" stroke="#FB5D1A" stroke-width="2" stroke-miterlimit="10"/>
<path d="M1024 664.159C1024 664.159 978.942 678.418 967.249 721.195C955.914 762.42 910 776 910 776" stroke="#FB5D1A" stroke-width="2" stroke-miterlimit="10"/>
<path d="M1024 629.142C1024 629.142 960.334 646.699 943.794 704.414C928.038 759.801 863.16 776 863.16 776" stroke="#FB5D1A" stroke-width="2" stroke-miterlimit="10"/>
<path d="M1024 594.222C1024 594.222 941.655 614.98 920.409 687.633C900.09 757.279 816.391 776 816.391 776" stroke="#FB5D1A" stroke-width="2" stroke-miterlimit="10"/>
<path d="M1024 559.205C1024 559.205 922.976 583.164 896.953 670.852C872.072 754.66 769.551 776 769.551 776" stroke="#FB5D1A" stroke-width="2" stroke-miterlimit="10"/>
<path d="M1024 524.284C1024 524.284 904.368 551.541 873.569 654.07C844.196 752.04 722.782 775.999 722.782 775.999" stroke="#FB5D1A" stroke-width="2" stroke-miterlimit="10"/>
<path d="M1024 489.365C1024 489.365 885.689 519.823 850.113 637.387C816.177 749.519 675.87 776 675.87 776" stroke="#FB5D1A" stroke-width="2" stroke-miterlimit="10"/>
<path d="M1024 454.348C1024 454.348 867.01 488.007 826.657 620.509C788.23 746.9 629.03 776 629.03 776" stroke="#FB5D1A" stroke-width="2" stroke-miterlimit="10"/>
<path d="M1024 419.428C1024 419.428 848.402 456.288 803.273 603.825C760.282 744.281 582.189 776 582.189 776" stroke="#FB5D1A" stroke-width="2" stroke-miterlimit="10"/>
<path d="M1024 384.508C1024 384.508 829.723 424.666 779.817 587.044C732.335 741.759 535.42 776 535.42 776" stroke="#FB5D1A" stroke-width="2" stroke-miterlimit="10"/>
<path d="M1024 349.49C1024 349.49 811.044 392.849 756.432 570.262C704.388 739.139 488.58 775.999 488.58 775.999" stroke="#FB5D1A" stroke-width="2" stroke-miterlimit="10"/>
<path d="M1024 314.57C1024 314.57 792.436 361.13 732.977 553.481C676.44 736.617 441.74 775.999 441.74 775.999" stroke="#FB5D1A" stroke-width="2" stroke-miterlimit="10"/>
<path d="M1024 279.651C1024 279.651 773.757 329.412 709.592 536.701C648.493 733.999 394.899 776 394.899 776" stroke="#FB5D1A" stroke-width="2" stroke-miterlimit="10"/>
<path d="M1024 244.634C1024 244.634 755.078 297.693 686.136 519.92C620.545 731.38 348.13 776 348.13 776" stroke="#FB5D1A" stroke-width="2" stroke-miterlimit="10"/>
<path d="M1024 209.714C1024 209.714 736.47 265.974 662.752 503.139C592.598 728.858 301.29 776 301.29 776" stroke="#FB5D1A" stroke-width="2" stroke-miterlimit="10"/>
<path d="M1024 174.794C1024 174.794 717.791 234.255 639.296 486.455C564.651 726.239 254.449 776 254.449 776" stroke="#FB5D1A" stroke-width="2" stroke-miterlimit="10"/>
<path d="M1024 139.777C1024 139.777 699.112 202.536 615.84 469.576C536.703 723.619 207.609 775.999 207.609 775.999" stroke="#FB5D1A" stroke-width="2" stroke-miterlimit="10"/>
<path d="M1024 104.857C1024 104.857 680.504 170.817 592.455 452.893C508.756 721.098 160.769 776 160.769 776" stroke="#FB5D1A" stroke-width="2" stroke-miterlimit="10"/>
<path d="M1024 69.937C1024 69.937 661.825 139.098 569 436.112C480.809 718.479 114 775.999 114 775.999" stroke="#FB5D1A" stroke-width="2" stroke-miterlimit="10"/>
<path d="M1024 34.9202C1024 34.9202 643.146 107.282 545.615 419.331C452.79 715.86 67.1591 776 67.1591 776" stroke="#FB5D1A" stroke-width="2" stroke-miterlimit="10"/>
<path d="M1024 0C1024 0 624.538 75.66 522.159 402.55C424.843 713.338 20.3188 775.999 20.3188 775.999" stroke="#FB5D1A" stroke-width="2" stroke-miterlimit="10"/>
</g>
</g>
<defs>
<clipPath id="clip0">
<rect width="1024" height="776" fill="white"/>
</clipPath>
</defs>
</svg>
