<svg width="320" height="594" viewBox="0 0 320 594" fill="none" xmlns="http://www.w3.org/2000/svg">
<g clip-path="url(#clip0)">
<rect width="1440" height="792" fill="#FFF9F2"/>
<g opacity="0.03">
<path d="M0 32.1502C0 32.1502 2.40618 26.136 3.09685 16.335C3.78751 6.534 6.34965 0 6.34965 0" stroke="#FB5D1A" stroke-width="2" stroke-miterlimit="10"/>
<path d="M0 58.8802C0 58.8802 8.2434 50.4157 10.4268 29.106C12.5211 8.39025 20.9873 0 20.9873 0" stroke="#FB5D1A" stroke-width="2" stroke-miterlimit="10"/>
<path d="M0 85.6102C0 85.6102 14.0806 74.6955 17.7345 41.9512C21.2546 10.395 35.6249 0 35.6249 0" stroke="#FB5D1A" stroke-width="2" stroke-miterlimit="10"/>
<path d="M0 112.414C0 112.414 19.8956 98.9752 25.0644 54.7965C29.9882 12.3255 50.2402 0 50.2402 0" stroke="#FB5D1A" stroke-width="2" stroke-miterlimit="10"/>
<path d="M0 139.144C0 139.144 25.7328 123.255 32.3721 67.6417C38.7217 14.3302 64.8778 0 64.8778 0" stroke="#FB5D1A" stroke-width="2" stroke-miterlimit="10"/>
<path d="M0 165.874C0 165.874 31.57 147.535 39.702 80.4127C47.4553 16.335 79.5154 0 79.5154 0" stroke="#FB5D1A" stroke-width="2" stroke-miterlimit="10"/>
<path d="M0 192.679C0 192.679 37.3849 171.814 47.0097 93.3322C56.1888 18.2655 94.153 0 94.153 0" stroke="#FB5D1A" stroke-width="2" stroke-miterlimit="10"/>
<path d="M0 219.409C0 219.409 43.2222 196.094 54.3396 106.103C64.9224 20.2702 108.791 0 108.791 0" stroke="#FB5D1A" stroke-width="2" stroke-miterlimit="10"/>
<path d="M0 246.139C0 246.139 49.0594 220.374 61.6696 118.948C73.6559 22.275 123.406 0 123.406 0" stroke="#FB5D1A" stroke-width="2" stroke-miterlimit="10"/>
<path d="M0 272.943C0 272.943 54.8743 244.728 68.9772 131.794C82.4117 24.2055 138.044 0 138.044 0" stroke="#FB5D1A" stroke-width="2" stroke-miterlimit="10"/>
<path d="M0 299.673C0 299.673 60.7115 268.933 76.3072 144.639C91.1453 26.2102 152.681 0 152.681 0" stroke="#FB5D1A" stroke-width="2" stroke-miterlimit="10"/>
<path d="M0 326.403C0 326.403 66.5488 293.213 83.6148 157.41C99.8788 28.215 167.319 0 167.319 0" stroke="#FB5D1A" stroke-width="2" stroke-miterlimit="10"/>
<path d="M0 353.207C0 353.207 72.3637 317.567 90.9448 170.329C108.612 30.1455 181.934 0 181.934 0" stroke="#FB5D1A" stroke-width="2" stroke-miterlimit="10"/>
<path d="M0 379.937C0 379.937 78.2009 341.847 98.2524 183.175C117.346 32.1502 196.572 0 196.572 0" stroke="#FB5D1A" stroke-width="2" stroke-miterlimit="10"/>
<path d="M0 406.741C0 406.741 84.0381 366.127 105.582 196.02C126.079 34.155 211.209 0 211.209 0" stroke="#FB5D1A" stroke-width="2" stroke-miterlimit="10"/>
<path d="M0 433.471C0 433.471 89.8531 390.406 112.89 208.865C134.813 36.0855 225.847 0 225.847 0" stroke="#FB5D1A" stroke-width="2" stroke-miterlimit="10"/>
<path d="M0 460.201C0 460.201 95.6903 414.686 120.22 221.636C143.547 38.0902 240.485 0 240.485 0" stroke="#FB5D1A" stroke-width="2" stroke-miterlimit="10"/>
<path d="M0 487.006C0 487.006 101.528 438.966 127.55 234.556C152.28 40.095 255.1 0 255.1 0" stroke="#FB5D1A" stroke-width="2" stroke-miterlimit="10"/>
<path d="M0 513.735C0 513.735 107.342 463.245 134.858 247.327C161.014 42.0255 269.737 0 269.737 0" stroke="#FB5D1A" stroke-width="2" stroke-miterlimit="10"/>
<path d="M0 540.466C0 540.466 113.18 487.525 142.188 260.172C169.747 44.0302 284.375 0 284.375 0" stroke="#FB5D1A" stroke-width="2" stroke-miterlimit="10"/>
<path d="M0 567.27C0 567.27 119.017 511.879 149.495 273.017C178.481 46.035 299.013 0 299.013 0" stroke="#FB5D1A" stroke-width="2" stroke-miterlimit="10"/>
<path d="M0 594C0 594 124.832 536.085 156.825 285.862C187.214 47.9655 313.628 0 313.628 0" stroke="#FB5D1A" stroke-width="2" stroke-miterlimit="10"/>
<path d="M320 561.849C320 561.849 317.594 567.863 316.903 577.664C316.212 587.54 313.65 593.925 313.65 593.925" stroke="#FB5D1A" stroke-width="2" stroke-miterlimit="10"/>
<path d="M320 535.12C320 535.12 311.757 543.584 309.573 564.894C307.479 585.61 299.013 594 299.013 594" stroke="#FB5D1A" stroke-width="2" stroke-miterlimit="10"/>
<path d="M320 508.39C320 508.39 305.919 519.304 302.265 552.049C298.723 583.605 284.375 594 284.375 594" stroke="#FB5D1A" stroke-width="2" stroke-miterlimit="10"/>
<path d="M320 481.586C320 481.586 300.104 495.025 294.936 539.204C290.012 581.6 269.738 594 269.738 594" stroke="#FB5D1A" stroke-width="2" stroke-miterlimit="10"/>
<path d="M320 454.855C320 454.855 294.267 470.745 287.628 526.358C281.278 579.67 255.122 594 255.122 594" stroke="#FB5D1A" stroke-width="2" stroke-miterlimit="10"/>
<path d="M320 428.051C320 428.051 288.43 446.391 280.298 513.513C272.522 577.665 240.485 594 240.485 594" stroke="#FB5D1A" stroke-width="2" stroke-miterlimit="10"/>
<path d="M320 401.321C320 401.321 282.615 422.185 272.99 500.667C263.811 575.66 225.869 593.999 225.869 593.999" stroke="#FB5D1A" stroke-width="2" stroke-miterlimit="10"/>
<path d="M320 374.591C320 374.591 276.778 397.906 265.66 487.897C255.055 573.73 211.209 594 211.209 594" stroke="#FB5D1A" stroke-width="2" stroke-miterlimit="10"/>
<path d="M320 347.787C320 347.787 270.941 373.552 258.33 474.977C246.322 571.725 196.572 594 196.572 594" stroke="#FB5D1A" stroke-width="2" stroke-miterlimit="10"/>
<path d="M320 321.057C320 321.057 265.126 349.272 251.023 462.206C237.588 569.72 181.934 594 181.934 594" stroke="#FB5D1A" stroke-width="2" stroke-miterlimit="10"/>
<path d="M320 294.327C320 294.327 259.289 325.066 243.693 449.361C228.855 567.789 167.319 594 167.319 594" stroke="#FB5D1A" stroke-width="2" stroke-miterlimit="10"/>
<path d="M320 267.522C320 267.522 253.451 300.712 236.385 436.515C220.121 565.784 152.681 593.999 152.681 593.999" stroke="#FB5D1A" stroke-width="2" stroke-miterlimit="10"/>
<path d="M320 240.792C320 240.792 247.636 276.432 229.055 423.67C211.387 563.854 138.043 593.999 138.043 593.999" stroke="#FB5D1A" stroke-width="2" stroke-miterlimit="10"/>
<path d="M320 214.063C320 214.063 241.799 252.153 221.748 410.825C202.654 561.85 123.406 594 123.406 594" stroke="#FB5D1A" stroke-width="2" stroke-miterlimit="10"/>
<path d="M320 187.259C320 187.259 235.962 227.873 214.417 397.98C193.92 559.845 108.791 594 108.791 594" stroke="#FB5D1A" stroke-width="2" stroke-miterlimit="10"/>
<path d="M320 160.529C320 160.529 230.147 203.594 207.11 385.135C185.187 557.914 94.1531 594 94.1531 594" stroke="#FB5D1A" stroke-width="2" stroke-miterlimit="10"/>
<path d="M320 133.799C320 133.799 224.31 179.314 199.78 372.364C176.453 555.91 79.5154 594 79.5154 594" stroke="#FB5D1A" stroke-width="2" stroke-miterlimit="10"/>
<path d="M320 106.994C320 106.994 218.472 155.034 192.45 359.444C167.72 553.904 64.8777 593.999 64.8777 593.999" stroke="#FB5D1A" stroke-width="2" stroke-miterlimit="10"/>
<path d="M320 80.2644C320 80.2644 212.658 130.754 185.142 346.673C158.986 551.974 50.2402 594 50.2402 594" stroke="#FB5D1A" stroke-width="2" stroke-miterlimit="10"/>
<path d="M320 53.5342C320 53.5342 206.82 106.474 177.812 333.828C150.253 549.969 35.6248 594 35.6248 594" stroke="#FB5D1A" stroke-width="2" stroke-miterlimit="10"/>
<path d="M320 26.73C320 26.73 200.983 82.1204 170.505 320.983C141.497 547.965 20.9871 594 20.9871 594" stroke="#FB5D1A" stroke-width="2" stroke-miterlimit="10"/>
<path d="M320 0C320 0 195.168 57.915 163.175 308.137C132.763 546.034 6.34961 594 6.34961 594" stroke="#FB5D1A" stroke-width="2" stroke-miterlimit="10"/>
</g>
</g>
<defs>
<clipPath id="clip0">
<rect width="320" height="594" fill="white"/>
</clipPath>
</defs>
</svg>
