<svg width="34" height="34" viewBox="0 0 34 34" fill="none" xmlns="http://www.w3.org/2000/svg">
<circle cx="17" cy="17" r="17" fill="white"/>
<g clip-path="url(#clip0)">
<path d="M21.9973 21.9998V21.9993H22.0001V17.9651C22.0001 15.9915 21.5752 14.4712 19.268 14.4712C18.1588 14.4712 17.4145 15.0799 17.1106 15.6569H17.0785V14.6554H14.8909V21.9993H17.1688V18.3629C17.1688 17.4054 17.3503 16.4796 18.536 16.4796C19.7043 16.4796 19.7217 17.5723 19.7217 18.4243V21.9998H21.9973Z" fill="black"/>
<path d="M11.1814 14.6562H13.4621V22.0001H11.1814V14.6562Z" fill="black"/>
<path d="M12.3209 11C11.5917 11 11 11.5917 11 12.3209C11 13.0501 11.5917 13.6542 12.3209 13.6542C13.0501 13.6542 13.6418 13.0501 13.6418 12.3209C13.6414 11.5917 13.0497 11 12.3209 11V11Z" fill="black"/>
</g>
<defs>
<clipPath id="clip0">
<rect width="11" height="11" fill="white" transform="translate(11 11)"/>
</clipPath>
</defs>
</svg>
