<svg width="103" height="40" viewBox="0 0 103 40" fill="none" xmlns="http://www.w3.org/2000/svg">
<path d="M28.4695 25.2712C28.1533 25.0974 27.776 24.9264 27.4751 24.754C29.5554 20.8512 30.9035 16.5022 30.959 12.078C30.9812 10.3067 30.7926 8.51316 30.1699 6.85585C29.5471 5.19854 28.4653 3.68027 26.966 2.74178C25.163 1.60864 22.8746 1.40564 20.7942 1.87141C18.7138 2.33718 16.8165 3.4161 15.1078 4.69384C9.71408 8.73145 6.05121 14.8018 4.33281 21.2725C4.27178 21.5047 4.21908 21.7397 4.16222 21.9677C4.11367 22.1595 4.04711 22.3472 4.00273 22.5405C3.97499 22.6615 3.94864 22.7838 3.92229 22.9048C3.8951 22.986 3.8765 23.0699 3.86681 23.155C3.87485 22.6531 3.90864 22.1519 3.96805 21.6535C4.03973 21.1717 4.13883 20.6945 4.26485 20.2242C4.5034 19.3176 4.81962 18.4348 5.11781 17.5505C6.79533 12.6784 9.65496 8.30094 13.4394 4.81203C13.665 4.6044 13.8961 4.40048 14.1328 4.20027C16.1647 2.45258 18.4933 0.944044 21.1091 0.305869C23.7248 -0.332307 26.6568 -0.00557208 28.8107 1.61559C31.4555 3.61492 32.4735 7.14505 32.5789 10.4597C32.7426 15.6485 31.07 20.7817 28.4695 25.2712Z" fill="#FB5D1A"/>
<path d="M14.3909 2.19675C10.6156 5.35843 7.44097 9.26534 5.27043 13.6895C3.08741 18.1386 2.05553 22.9548 2.1013 27.9003C1.58537 25.7536 1.83501 23.1801 2.18729 21.0222C2.57266 18.7105 3.25323 16.4582 4.2122 14.3207C4.9503 12.6704 5.83211 11.0885 6.84737 9.59346C8.83206 6.65146 11.3285 3.99309 14.3909 2.19675Z" fill="#FB5D1A"/>
<path d="M14.5532 2.0605C14.5976 1.97291 14.6919 1.99516 14.7626 1.97708C14.7945 2.07163 14.7113 2.05633 14.6711 2.07163C14.6309 2.08692 14.5893 2.12029 14.5532 2.0605Z" fill="#FB5D1A"/>
<path d="M15.2188 1.61281C15.2715 1.59195 15.3229 1.5711 15.3728 1.61281C15.3512 1.63078 15.3239 1.64062 15.2958 1.64062C15.2677 1.64062 15.2405 1.63078 15.2188 1.61281Z" fill="#FB5D1A"/>
<path d="M15.0385 1.82137C14.9858 1.85613 14.9373 1.85891 14.9359 1.82137C14.9345 1.78383 14.9858 1.79495 15.0385 1.82137Z" fill="#FB5D1A"/>
<path d="M12.4034 19.1411C12.245 18.6914 11.9485 18.3036 11.5566 18.0333C11.1647 17.763 10.6974 17.6242 10.2218 17.6367C9.74626 17.6492 9.28689 17.8124 8.90962 18.1029C8.53236 18.3934 8.25661 18.7963 8.12195 19.2537C7.51586 21.292 9.96378 22.9826 11.6489 21.6896C11.9173 21.4749 12.1348 21.2031 12.2856 20.8939C12.4365 20.5847 12.517 20.2458 12.5213 19.9016C12.5279 19.6431 12.488 19.3854 12.4034 19.1411ZM10.7183 19.1411C10.6102 19.1397 10.505 19.1063 10.4158 19.0452C10.3266 18.984 10.2575 18.8977 10.2171 18.7973C10.1767 18.6968 10.1668 18.5866 10.1888 18.4805C10.2107 18.3745 10.2634 18.2773 10.3403 18.2012C10.4172 18.125 10.5148 18.0734 10.6208 18.0528C10.7269 18.0322 10.8367 18.0434 10.9364 18.0852C11.0361 18.127 11.1213 18.1974 11.1812 18.2875C11.2411 18.3777 11.273 18.4836 11.273 18.5919C11.2701 18.7379 11.21 18.877 11.1057 18.9789C11.0014 19.0809 10.8612 19.1377 10.7155 19.1369L10.7183 19.1411Z" fill="#FB5D1A"/>
<path d="M14.9581 16.6454C14.8391 16.614 14.7133 16.6212 14.5987 16.6659C14.4841 16.7107 14.3865 16.7906 14.32 16.8944C14.2535 16.9981 14.2214 17.1203 14.2284 17.2434C14.2354 17.3665 14.2811 17.4842 14.359 17.5797C14.4383 17.6719 14.5441 17.7373 14.6619 17.7668C14.7798 17.7963 14.9039 17.7885 15.0171 17.7444C15.1303 17.7004 15.2272 17.6223 15.2944 17.5209C15.3615 17.4194 15.3957 17.2996 15.3922 17.1779C15.3855 17.0891 15.3592 17.0029 15.3154 16.9255C15.2715 16.8481 15.211 16.7814 15.1384 16.7302C15.0839 16.6913 15.0228 16.6625 14.9581 16.6454ZM14.7126 17.0055C14.7022 17.0209 14.6888 17.0341 14.6732 17.0444C14.6576 17.0546 14.6402 17.0617 14.6219 17.0651C14.6036 17.0686 14.5848 17.0685 14.5666 17.0647C14.5484 17.0609 14.5311 17.0535 14.5157 17.043C14.5003 17.0325 14.4871 17.0191 14.4769 17.0035C14.4667 16.9879 14.4597 16.9704 14.4562 16.9521C14.4527 16.9338 14.4529 16.9149 14.4566 16.8966C14.4604 16.8784 14.4678 16.861 14.4782 16.8456C14.4994 16.8144 14.532 16.793 14.569 16.7859C14.6059 16.7789 14.6441 16.7869 14.6752 16.8081C14.7063 16.8293 14.7277 16.862 14.7347 16.899C14.7417 16.936 14.7338 16.9743 14.7126 17.0055Z" fill="#FB5D1A"/>
<path d="M16.0094 20.3132C15.7141 20.3754 15.4462 20.5297 15.2438 20.754C15.0415 20.9783 14.9151 21.2611 14.8829 21.5618C14.8508 21.8625 14.9144 22.1657 15.0647 22.4279C15.2149 22.6902 15.4442 22.898 15.7195 23.0216C16.9483 23.5777 18.216 22.1735 17.5433 21.0014C17.4305 20.8151 17.278 20.6562 17.0967 20.536C16.9155 20.4158 16.7099 20.3374 16.4948 20.3062C16.3339 20.2786 16.1694 20.281 16.0094 20.3132ZM15.8707 21.3754C15.8613 21.4434 15.8321 21.5071 15.7866 21.5585C15.7412 21.6099 15.6816 21.6466 15.6154 21.6641C15.5492 21.6815 15.4792 21.679 15.4145 21.6566C15.3497 21.6343 15.293 21.5933 15.2514 21.5387C15.2099 21.4841 15.1855 21.4184 15.1811 21.3498C15.1768 21.2813 15.1928 21.213 15.2272 21.1536C15.2615 21.0942 15.3126 21.0464 15.3741 21.016C15.4355 20.9857 15.5046 20.9743 15.5725 20.9833C15.6617 20.9987 15.7414 21.0482 15.7949 21.1213C15.8485 21.1944 15.8717 21.2855 15.8596 21.3754H15.8707Z" fill="#FB5D1A"/>
<path d="M4.16228 29.1294C3.92027 29.3722 3.63292 29.5647 3.31665 29.6961C3.00038 29.8275 2.6614 29.8951 2.31906 29.8951C1.97672 29.8951 1.63772 29.8275 1.32146 29.6961C1.00519 29.5647 0.71784 29.3722 0.47583 29.1294C0.717967 29.372 0.910041 29.6601 1.04109 29.9771C1.17214 30.2942 1.23959 30.634 1.23959 30.9772C1.23959 31.3204 1.17214 31.6602 1.04109 31.9773C0.910041 32.2943 0.717967 32.5824 0.47583 32.825C0.71784 32.5823 1.00519 32.3897 1.32146 32.2583C1.63772 32.127 1.97672 32.0593 2.31906 32.0593C2.6614 32.0593 3.00038 32.127 3.31665 32.2583C3.63292 32.3897 3.92027 32.5823 4.16228 32.825C3.92014 32.5824 3.72807 32.2943 3.59702 31.9773C3.46597 31.6602 3.39851 31.3204 3.39851 30.9772C3.39851 30.634 3.46597 30.2942 3.59702 29.9771C3.72807 29.6601 3.92014 29.372 4.16228 29.1294Z" fill="#FB5D1A"/>
<path d="M28.5721 38.5992C29.2184 37.5466 29.5429 35.7183 29.3834 35.019C30.07 35.2971 29.6234 38.2418 29.6234 38.2418L29.8009 38.2557C31.3931 35.3499 30.6594 30.7853 28.4292 28.2688L26.4001 29.0251L28.744 28.152C28.8508 28.1114 28.9373 28.0303 28.9848 27.9262C29.0323 27.8221 29.037 27.7034 28.9979 27.5959L28.9091 27.3581C28.8689 27.2508 28.788 27.1639 28.6841 27.1162C28.5801 27.0685 28.4616 27.064 28.3543 27.1037L20.2921 30.1082C20.1851 30.1485 20.0984 30.2296 20.0508 30.3338C20.0033 30.438 19.9988 30.5569 20.0383 30.6644L20.1257 30.9021C20.1659 31.0094 20.2468 31.0964 20.3508 31.144C20.4547 31.1917 20.5732 31.1962 20.6805 31.1566L24.7525 29.6397C23.8038 30.0693 22.0799 30.8827 21.3892 31.1871C21.2236 31.2419 21.0769 31.3427 20.9662 31.4777C20.7928 31.7363 20.9176 32.0853 21.0688 32.3564C21.5917 33.3033 22.3711 34.0805 22.9453 34.9981C23.5195 35.9158 23.8718 37.0837 23.4321 38.0736C23.3478 38.3004 23.1835 38.4883 22.9703 38.6019C22.7967 38.6642 22.6116 38.6879 22.428 38.6715L20.141 38.6256C20.5819 38.4649 20.9698 38.1848 21.2616 37.8164C21.6777 37.2908 22.2075 34.7576 22.2075 34.7576L21.5806 33.9637C21.5806 33.9637 21.0619 36.9196 20.5029 37.4757C19.4225 38.5491 14.9081 38.36 12.5392 37.7024C15.4074 37.2561 19.3768 36.1952 20.8608 33.1142C20.8608 33.1142 20.2561 32.305 20.2991 31.8378C20.2991 31.8378 19.9828 31.8921 19.729 31.3901L19.5099 30.891C19.2686 30.2528 19.4156 29.9317 19.926 29.5688C19.926 29.5688 19.8677 28.526 20.2186 27.7613C17.2021 28.127 13.8013 27.8906 10.825 27.2789C10.4991 27.2121 10.1066 27.0772 10.119 26.6949C10.1265 26.5653 10.1766 26.4419 10.2614 26.3438C10.3462 26.2457 10.4609 26.1785 10.5878 26.1527C14.1247 25.4045 17.7686 25.3144 21.3379 25.8871C21.3505 25.7903 21.3791 25.6964 21.4225 25.609C21.3865 25.524 21.3732 25.4311 21.3836 25.3393C17.5779 24.6539 13.922 24.9444 10.4713 25.4909C10.1759 25.5367 9.86105 25.5979 9.65302 25.8134C9.39782 26.0762 9.37563 26.4836 9.39227 26.8506C9.42888 28.2606 9.58853 29.6647 9.86938 31.0467C9.13269 31.2027 8.37113 31.198 7.63643 31.0328C7.51322 31.0056 7.3952 30.9587 7.28693 30.8938C6.40484 30.396 6.9818 29.3366 7.54906 28.6414C7.92882 28.1406 8.39934 27.7161 8.93597 27.3901L8.89853 26.6949C7.94571 27.1829 6.80706 28.3049 6.37988 29.2907C6.26584 29.5399 6.19905 29.8081 6.18294 30.0818C6.13578 31.29 7.2259 31.7183 8.18427 31.8031C9.97895 31.963 11.7348 31.3484 13.4227 30.6908C13.5392 30.6449 14.2826 30.3349 14.3935 30.289C13.431 30.9605 11.7098 31.7002 10.5712 31.9477C10.4172 31.981 10.2425 32.0241 10.1648 32.1632C10.1182 32.2873 10.1182 32.4242 10.1648 32.5483C10.5346 34.1723 10.9017 35.7943 11.266 37.4146C11.334 37.7149 11.4158 38.0374 11.6571 38.2265C12.0191 38.5046 12.6044 38.3809 12.9248 38.709L8.93597 39.0927C17.4284 39.657 25.949 39.6477 34.4402 39.0649L28.5721 38.5992ZM25.3017 38.5769H24.6928C24.6928 38.5769 25.1727 37.1713 25.1519 35.9936C25.647 37.2102 25.3017 38.5769 25.3017 38.5769ZM26.8273 38.5769H26.1255C26.1255 38.5769 26.6803 37.2422 26.1255 35.443C27.2101 36.6429 26.8273 38.5769 26.8273 38.5769ZM28.2143 38.5769H27.5624C27.5624 38.5769 28.0381 37.0475 27.9507 36.2828C28.5291 36.7055 28.2143 38.5769 28.2143 38.5769Z" fill="#FB5D1A"/>
<path d="M21.9621 24.779C21.8651 24.8749 21.7998 24.9983 21.775 25.1325C21.7502 25.2668 21.7671 25.4054 21.8234 25.5298C21.8378 25.5593 21.8545 25.5876 21.8733 25.6146C21.7907 25.7078 21.7359 25.8224 21.7153 25.9454C21.6947 26.0683 21.7091 26.1946 21.7568 26.3098C21.3241 27.1343 20.6722 27.8698 20.5849 28.7916C20.5481 29.1813 20.5649 29.5743 20.6348 29.9595L20.589 29.9956L23.6139 28.868L27.7747 26.8729C27.0368 25.5492 25.6804 25.331 24.324 25.0473C24.2379 24.9129 24.1065 24.8141 23.9537 24.7689C23.8008 24.7237 23.6369 24.7352 23.4919 24.8012L23.4516 24.8193C23.4516 24.8068 23.4447 24.7943 23.4391 24.7818C23.367 24.6258 23.2375 24.5039 23.0778 24.4414C22.9181 24.379 22.7404 24.3809 22.582 24.4467C22.4342 24.2946 22.3099 24.1212 22.2131 23.9323C18.718 17.7354 17.8984 10.0801 20.0023 3.28124C19.4656 3.28124 19.1799 3.90412 19.0468 4.42551C17.3446 11.2452 18.3453 18.4609 21.8386 24.5565C21.8844 24.6302 21.9246 24.7039 21.9621 24.779Z" fill="#FB5D1A"/>
<path d="M92.0302 16.1522C92.0302 16.2316 92.0149 16.3292 91.9844 16.4451C91.96 16.5549 91.896 16.6617 91.7923 16.7654C91.6946 16.863 91.5513 16.9454 91.3622 17.0125C91.173 17.0857 90.9168 17.1223 90.5934 17.1223C90.2701 17.1223 90.0169 17.0826 89.8339 17.0033C89.6508 16.9301 89.5136 16.8416 89.4221 16.7379C89.3305 16.6342 89.2726 16.5275 89.2482 16.4176C89.2299 16.3078 89.2207 16.2194 89.2207 16.1522V9.08736C89.2207 8.91043 89.178 8.75791 89.0926 8.62979C89.0133 8.49557 88.876 8.42846 88.6808 8.42846C88.5771 8.42846 88.4886 8.44676 88.4154 8.48337C88.3422 8.51997 88.2629 8.57183 88.1775 8.63894L87.9853 8.41016C88.1256 8.29424 88.2812 8.18137 88.452 8.07156C88.6289 7.95564 88.818 7.85497 89.0194 7.76956C89.2207 7.68415 89.4373 7.61399 89.6691 7.55908C89.901 7.50417 90.145 7.47671 90.4012 7.47671C90.7978 7.47671 91.1059 7.53162 91.3255 7.64144C91.5452 7.74516 91.7069 7.87633 91.8106 8.03495C91.9143 8.18747 91.9753 8.3522 91.9936 8.52913C92.018 8.70605 92.0302 8.86163 92.0302 8.99585V16.1522ZM88.937 5.39019C88.937 5.21937 88.9736 5.05769 89.0468 4.90517C89.1262 4.74655 89.2329 4.60928 89.3672 4.49336C89.5075 4.37744 89.6661 4.28593 89.843 4.21882C90.026 4.15171 90.2243 4.11815 90.4379 4.11815C90.6453 4.11815 90.8375 4.15171 91.0144 4.21882C91.1974 4.28593 91.356 4.37744 91.4903 4.49336C91.6245 4.60928 91.7282 4.74655 91.8014 4.90517C91.8807 5.05769 91.9204 5.21937 91.9204 5.39019C91.9204 5.56712 91.8807 5.73185 91.8014 5.88437C91.7282 6.03689 91.6245 6.17111 91.4903 6.28703C91.356 6.39685 91.1974 6.48531 91.0144 6.55242C90.8375 6.61953 90.6453 6.65309 90.4379 6.65309C90.2243 6.65309 90.026 6.61953 89.843 6.55242C89.6661 6.48531 89.5075 6.39685 89.3672 6.28703C89.2329 6.17111 89.1262 6.03689 89.0468 5.88437C88.9736 5.73185 88.937 5.56712 88.937 5.39019Z" fill="#FB5D1A"/>
<path d="M99.7265 12.4185C99.7265 11.6498 99.6899 11.0366 99.6167 10.579C99.5496 10.1154 99.4581 9.76456 99.3422 9.52663C99.2262 9.28259 99.0981 9.12397 98.9578 9.05076C98.8175 8.97144 98.6741 8.93179 98.5277 8.93179C98.3508 8.93179 98.1921 8.98059 98.0518 9.07821C97.9176 9.16972 97.7986 9.27649 97.6949 9.39851C97.5973 9.52053 97.5119 9.64255 97.4387 9.76456C97.3716 9.88658 97.3136 9.9781 97.2648 10.0391V16.1522C97.2648 16.2316 97.2526 16.3292 97.2282 16.4451C97.2038 16.5549 97.1428 16.6617 97.0452 16.7654C96.9537 16.863 96.8133 16.9454 96.6242 17.0125C96.4412 17.0857 96.188 17.1223 95.8647 17.1223C95.5413 17.1223 95.285 17.0826 95.0959 17.0033C94.9129 16.9301 94.7726 16.8416 94.675 16.7379C94.5773 16.6342 94.5163 16.5275 94.4919 16.4176C94.4675 16.3078 94.4553 16.2194 94.4553 16.1522V9.08736C94.4553 8.91043 94.4126 8.75791 94.3272 8.62979C94.2479 8.49557 94.1106 8.42846 93.9154 8.42846C93.8117 8.42846 93.7232 8.44676 93.65 8.48337C93.5768 8.51997 93.4975 8.57183 93.4121 8.63894L93.2199 8.41016C93.3602 8.29424 93.5158 8.18137 93.6866 8.07156C93.8635 7.95564 94.0527 7.85497 94.254 7.76956C94.4553 7.68415 94.6719 7.61399 94.9037 7.55908C95.1356 7.50417 95.3796 7.47671 95.6359 7.47671C96.0324 7.47671 96.3405 7.54382 96.5602 7.67804C96.7798 7.80616 96.9415 7.96174 97.0452 8.14477C97.1489 8.3278 97.2099 8.51997 97.2282 8.7213C97.2526 8.91653 97.2648 9.08126 97.2648 9.21548C97.4905 8.89213 97.7468 8.60234 98.0335 8.3461C98.1495 8.23628 98.2776 8.12951 98.4179 8.0258C98.5643 7.92208 98.7168 7.83057 98.8755 7.75126C99.0402 7.66584 99.211 7.59873 99.3879 7.54993C99.571 7.50112 99.757 7.47671 99.9462 7.47671C100.361 7.47671 100.727 7.55603 101.044 7.71465C101.368 7.87327 101.639 8.13867 101.859 8.51082C102.078 8.88298 102.246 9.37716 102.362 9.99335C102.478 10.6034 102.536 11.363 102.536 12.272C102.536 13.1567 102.457 13.9254 102.298 14.5782C102.139 15.231 101.932 15.7862 101.676 16.2438C101.42 16.7013 101.13 17.0735 100.806 17.3602C100.483 17.6531 100.157 17.8819 99.8272 18.0466C99.4978 18.2113 99.1805 18.3242 98.8755 18.3852C98.5765 18.4523 98.3172 18.4889 98.0976 18.495L97.9969 18.1198C98.1799 18.0771 98.3477 18.01 98.5002 17.9185C98.6589 17.8269 98.8022 17.6927 98.9304 17.5158C99.0585 17.3389 99.1713 17.1162 99.269 16.8477C99.3666 16.5732 99.4489 16.2316 99.5161 15.8228C99.5893 15.414 99.6411 14.9321 99.6716 14.3769C99.7082 13.8156 99.7265 13.1628 99.7265 12.4185Z" fill="#FB5D1A"/>
<path d="M50.9496 13.6996L47.6551 7.13809L47.5361 9.34358C47.4995 9.98418 47.4659 10.6217 47.4354 11.2562C47.411 11.8846 47.3622 12.4856 47.289 13.059C47.2158 13.6264 47.0999 14.1542 46.9413 14.6422C46.7887 15.1303 46.563 15.5543 46.264 15.9143C45.9712 16.2681 45.5868 16.5457 45.111 16.7471C44.6412 16.9484 44.0525 17.0491 43.3448 17.0491C43.0336 17.0491 42.7346 17.0247 42.4479 16.9758C42.1612 16.9209 41.908 16.8477 41.6884 16.7562C41.4687 16.6647 41.2948 16.5579 41.1667 16.4359C41.0325 16.3078 40.9654 16.1705 40.9654 16.0241C40.9654 15.9143 40.9806 15.8045 41.0111 15.6947C41.0416 15.5787 41.0874 15.475 41.1484 15.3835C41.2094 15.2859 41.2857 15.2096 41.3772 15.1547C41.4626 15.0937 41.5602 15.0632 41.67 15.0632C41.7372 15.0632 41.7951 15.0968 41.8439 15.1639C41.8988 15.231 41.9537 15.3164 42.0086 15.4201C42.0635 15.5177 42.1246 15.6245 42.1917 15.7404C42.2649 15.8563 42.3564 15.9661 42.4662 16.0699C42.5821 16.1675 42.7194 16.2498 42.878 16.3169C43.0366 16.3841 43.2349 16.4176 43.4729 16.4176C43.9426 16.4176 44.3362 16.3383 44.6534 16.1797C44.9768 16.015 45.2422 15.7801 45.4496 15.475C45.657 15.17 45.8156 14.8009 45.9254 14.3677C46.0353 13.9345 46.1176 13.4434 46.1725 12.8943C46.1969 12.5893 46.2213 12.2964 46.2457 12.0158C46.2701 11.729 46.2945 11.4454 46.3189 11.1647C46.3433 10.8841 46.3647 10.6004 46.383 10.3136C46.4074 10.0208 46.4318 9.71269 46.4562 9.38934C46.4867 8.91957 46.5142 8.4742 46.5386 8.05323C46.563 7.62617 46.5813 7.22961 46.5935 6.86355C46.6118 6.4975 46.624 6.16804 46.6301 5.8752C46.6423 5.58236 46.6515 5.32917 46.6576 5.11563C46.5538 4.9021 46.4623 4.73127 46.383 4.60316C46.3037 4.46893 46.2213 4.36827 46.1359 4.30116C46.0505 4.22795 45.9559 4.17914 45.8522 4.15474C45.7485 4.13033 45.6234 4.11813 45.477 4.11813C45.355 4.11813 45.2025 4.14253 45.0194 4.19134C44.8425 4.23405 44.6564 4.29811 44.4612 4.38352C44.2721 4.46893 44.0799 4.5757 43.8847 4.70382C43.6955 4.82584 43.5247 4.96921 43.3722 5.13394C43.2258 5.29256 43.1037 5.46949 43.0061 5.66472C42.9146 5.85995 42.8689 6.07043 42.8689 6.29616C42.8689 6.49139 42.8933 6.64697 42.9421 6.76289C42.997 6.8788 43.058 6.96727 43.1251 7.02828C43.1983 7.08318 43.2685 7.11979 43.3356 7.13809C43.4088 7.15029 43.4607 7.1564 43.4912 7.1564C43.6437 7.1564 43.7687 7.13199 43.8664 7.08318C43.964 7.02828 44.0525 6.97337 44.1318 6.91846C44.2111 6.85745 44.2843 6.80254 44.3514 6.75373C44.4246 6.69883 44.507 6.67137 44.5985 6.67137C44.6717 6.67137 44.748 6.68967 44.8273 6.72628C44.9127 6.75678 44.9889 6.80864 45.0561 6.88185C45.1293 6.95507 45.1903 7.05268 45.2391 7.1747C45.2879 7.29062 45.3123 7.43399 45.3123 7.60481C45.3123 7.84885 45.2635 8.05933 45.1659 8.23626C45.0743 8.41319 44.9524 8.56266 44.7998 8.68468C44.6534 8.8006 44.4826 8.88906 44.2874 8.95007C44.0982 9.00498 43.9091 9.03243 43.72 9.03243C43.4271 9.03243 43.1617 8.98363 42.9238 8.88601C42.692 8.7823 42.4937 8.64197 42.3289 8.46505C42.1642 8.28812 42.0392 8.08069 41.9537 7.84275C41.8683 7.60482 41.8256 7.35163 41.8256 7.08318C41.8256 6.44869 41.972 5.89655 42.2649 5.42678C42.5577 4.95091 42.9421 4.55435 43.418 4.2371C43.8938 3.91985 44.4307 3.68496 45.0286 3.53244C45.6326 3.37382 46.2457 3.2945 46.868 3.2945C47.3683 3.2945 47.7862 3.34636 48.1218 3.45008C48.4573 3.54769 48.738 3.68191 48.9637 3.85274C49.1894 4.01747 49.3755 4.2127 49.5219 4.43843C49.6684 4.66416 49.8026 4.9021 49.9246 5.15224L52.3406 10.0574C52.969 8.8189 53.5394 7.71158 54.0519 6.73543C54.5705 5.75318 55.0494 4.8899 55.4886 4.14558C55.9279 3.40127 56.3367 2.76677 56.7149 2.24209C57.0993 1.71741 57.4684 1.29035 57.8223 0.960897C58.1822 0.625346 58.5361 0.381308 58.8838 0.228785C59.2377 0.0762617 59.6037 0 59.982 0C60.3053 0 60.5677 0.0701607 60.769 0.210482C60.9703 0.344703 61.071 0.549084 61.071 0.823626C61.071 1.06766 61.0313 1.26899 60.952 1.42762C60.8727 1.58624 60.7629 1.66556 60.6226 1.66556C60.5067 1.66556 60.4182 1.62285 60.3572 1.53744C60.2962 1.44592 60.2352 1.34831 60.1742 1.24459C60.1193 1.14087 60.0491 1.04631 59.9637 0.960897C59.8783 0.869383 59.7532 0.823626 59.5885 0.823626C59.4909 0.823626 59.3719 0.85108 59.2316 0.905989C59.0912 0.960897 58.9448 1.04326 58.7923 1.15308C58.6459 1.26289 58.4995 1.40016 58.3531 1.56489C58.2066 1.72961 58.0785 1.92179 57.9687 2.14143C57.8589 2.36106 57.7734 2.6112 57.7124 2.89184C57.6514 3.17249 57.6331 3.48058 57.6575 3.81613C57.6819 4.20049 57.7155 4.65196 57.7582 5.17054C57.8009 5.68302 57.8467 6.23515 57.8955 6.82695C57.9504 7.41263 58.0053 8.01968 58.0602 8.64807C58.1212 9.27647 58.1822 9.89572 58.2432 10.5058C58.3042 11.1159 58.3622 11.7016 58.4171 12.2629C58.4781 12.8242 58.533 13.3336 58.5818 13.7912C58.6306 14.2426 58.6764 14.627 58.7191 14.9442C58.7618 15.2554 58.7954 15.4689 58.8198 15.5848C58.8564 15.7618 58.9052 15.9051 58.9662 16.015C59.0272 16.1187 59.137 16.1705 59.2956 16.1705C59.4604 16.1705 59.6159 16.1431 59.7624 16.0882C59.9088 16.0272 60.04 15.9661 60.1559 15.9051L60.3023 16.2437C60.1925 16.323 60.0521 16.4146 59.8813 16.5183C59.7166 16.6159 59.5244 16.7105 59.3048 16.802C59.0912 16.8935 58.8533 16.9697 58.591 17.0308C58.3347 17.0918 58.0572 17.1223 57.7582 17.1223C57.3372 17.1223 57.0047 17.0704 56.7607 16.9667C56.5167 16.8569 56.3275 16.7257 56.1933 16.5732C56.0652 16.4146 55.9767 16.2498 55.9279 16.079C55.8852 15.9021 55.8517 15.7435 55.8273 15.6031C55.7724 15.292 55.7144 14.9168 55.6534 14.4775C55.5924 14.0382 55.5314 13.5685 55.4704 13.0682C55.4155 12.5618 55.3605 12.0432 55.3056 11.5125C55.2507 10.9756 55.1989 10.4539 55.1501 9.94757C55.1073 9.43509 55.0677 8.95312 55.0311 8.50165C54.9945 8.05018 54.964 7.65667 54.9396 7.32112C54.7565 7.62007 54.5857 7.90986 54.4271 8.1905C54.2746 8.46505 54.1251 8.74874 53.9787 9.04158C53.8322 9.32833 53.6828 9.63032 53.5302 9.94757C53.3777 10.2648 53.2161 10.6095 53.0452 10.9817C52.8805 11.3538 52.6975 11.7626 52.4962 12.208C52.3009 12.6533 52.0843 13.1506 51.8464 13.6996H50.9496Z" fill="#FB5D1A"/>
<path d="M65.5826 12.2354C65.5826 12.0829 65.5338 11.967 65.4362 11.8877C65.3386 11.8084 65.2136 11.7687 65.061 11.7687C64.8475 11.7687 64.6431 11.8175 64.4479 11.9151C64.2587 12.0127 64.091 12.1561 63.9445 12.3452C63.7981 12.5344 63.6822 12.7693 63.5968 13.0499C63.5114 13.3244 63.4687 13.6447 63.4687 14.0108C63.4687 14.3646 63.4931 14.6575 63.5419 14.8893C63.5968 15.1212 63.667 15.3072 63.7524 15.4476C63.8439 15.5818 63.9476 15.6763 64.0635 15.7313C64.1794 15.7862 64.3014 15.8136 64.4296 15.8136C64.5882 15.8136 64.7377 15.774 64.878 15.6947C65.0183 15.6092 65.1403 15.5025 65.244 15.3744C65.3478 15.2462 65.4301 15.1029 65.4911 14.9442C65.5522 14.7856 65.5826 14.627 65.5826 14.4684V12.2354ZM64.1276 8.22711C63.9201 8.22711 63.728 8.25151 63.551 8.30032C63.3741 8.34913 63.2216 8.41014 63.0935 8.48335C62.9654 8.55656 62.8647 8.63892 62.7915 8.73044C62.7183 8.81585 62.6816 8.89821 62.6816 8.97752C62.6816 9.06904 62.7274 9.13615 62.8189 9.17886C62.9166 9.21546 63.0233 9.26122 63.1392 9.31613C63.2551 9.36493 63.3589 9.43814 63.4504 9.53576C63.548 9.62727 63.5968 9.77065 63.5968 9.96588C63.5968 10.094 63.5693 10.213 63.5144 10.3228C63.4656 10.4265 63.3955 10.5211 63.304 10.6065C63.2185 10.6858 63.1148 10.7498 62.9928 10.7987C62.8769 10.8414 62.7549 10.8627 62.6267 10.8627C62.2851 10.8627 62.0075 10.7468 61.794 10.515C61.5865 10.2831 61.4828 9.97503 61.4828 9.59067C61.4828 9.21851 61.5804 8.90126 61.7757 8.63892C61.9709 8.37048 62.2241 8.15085 62.5352 7.98002C62.8525 7.8092 63.2094 7.68413 63.606 7.60481C64.0025 7.5194 64.3991 7.4767 64.7956 7.4767C65.2715 7.4767 65.726 7.52855 66.1592 7.63227C66.5923 7.73598 66.9736 7.90071 67.3031 8.12644C67.6386 8.35218 67.904 8.63892 68.0993 8.98668C68.3006 9.33443 68.4013 9.75539 68.4013 10.2496V15.4201C68.4013 15.475 68.4043 15.536 68.4104 15.6031C68.4165 15.6702 68.4318 15.7313 68.4562 15.7862C68.4806 15.8411 68.5172 15.8868 68.566 15.9234C68.6148 15.96 68.685 15.9783 68.7765 15.9783C68.8863 15.9783 68.987 15.9387 69.0785 15.8594C69.1761 15.774 69.2615 15.6886 69.3347 15.6031L69.5635 15.7953C69.472 15.9234 69.3622 16.0638 69.2341 16.2163C69.1059 16.3688 68.9504 16.5122 68.7673 16.6464C68.5843 16.7806 68.3708 16.8935 68.1267 16.985C67.8827 17.0765 67.6051 17.1223 67.294 17.1223C66.9096 17.1223 66.568 17.0094 66.269 16.7837C65.9701 16.5518 65.7748 16.198 65.6833 15.7221C65.4881 15.9844 65.2837 16.2041 65.0702 16.381C64.8627 16.5579 64.6492 16.7013 64.4296 16.8111C64.2099 16.9209 63.9873 17.0003 63.7615 17.0491C63.5419 17.0979 63.3192 17.1223 63.0935 17.1223C62.8006 17.1223 62.5169 17.0765 62.2424 16.985C61.9679 16.8935 61.7208 16.7501 61.5011 16.5549C61.2876 16.3536 61.1137 16.0943 60.9795 15.777C60.8514 15.4598 60.7873 15.0724 60.7873 14.6148C60.7873 14.0596 60.8971 13.6051 61.1168 13.2512C61.3364 12.8974 61.6231 12.6015 61.977 12.3635C62.3369 12.1195 62.7427 11.9121 63.1941 11.7412C63.6517 11.5704 64.1184 11.3904 64.5943 11.2013C64.9482 11.061 65.2044 10.8536 65.363 10.579C65.5277 10.2984 65.6101 10.0116 65.6101 9.71879C65.6101 9.26732 65.4759 8.90736 65.2074 8.63892C64.9451 8.36438 64.5851 8.22711 64.1276 8.22711Z" fill="#FB5D1A"/>
<path d="M73.7182 16.1522C73.7182 16.2315 73.703 16.3292 73.6725 16.4451C73.6481 16.5549 73.584 16.6617 73.4803 16.7654C73.3827 16.863 73.2393 16.9453 73.0502 17.0125C72.8611 17.0857 72.6048 17.1223 72.2815 17.1223C71.9581 17.1223 71.7049 17.0826 71.5219 17.0033C71.3389 16.9301 71.2016 16.8416 71.1101 16.7379C71.0186 16.6342 70.9606 16.5274 70.9362 16.4176C70.9179 16.3078 70.9088 16.2193 70.9088 16.1522V9.08734C70.9088 8.91041 70.8661 8.75789 70.7806 8.62977C70.7013 8.49555 70.5641 8.42844 70.3688 8.42844C70.2651 8.42844 70.1767 8.44674 70.1035 8.48335C70.0302 8.51996 69.9509 8.57181 69.8655 8.63892L69.6733 8.41014C69.8137 8.29422 69.9692 8.18135 70.14 8.07154C70.317 7.95562 70.5061 7.85495 70.7074 7.76954C70.9088 7.68413 71.1253 7.61397 71.3572 7.55906C71.589 7.50415 71.8331 7.4767 72.0893 7.4767C72.4859 7.4767 72.7939 7.5316 73.0136 7.64142C73.2332 7.74514 73.3949 7.87631 73.4986 8.03493C73.6023 8.18745 73.6633 8.35218 73.6816 8.52911C73.706 8.70603 73.7182 8.86161 73.7182 8.99583V16.1522ZM70.6251 5.39018C70.6251 5.21935 70.6617 5.05767 70.7349 4.90515C70.8142 4.74653 70.921 4.60926 71.0552 4.49334C71.1955 4.37742 71.3541 4.28591 71.5311 4.2188C71.7141 4.15169 71.9124 4.11813 72.1259 4.11813C72.3333 4.11813 72.5255 4.15169 72.7025 4.2188C72.8855 4.28591 73.0441 4.37742 73.1783 4.49334C73.3125 4.60926 73.4163 4.74653 73.4895 4.90515C73.5688 5.05767 73.6084 5.21935 73.6084 5.39018C73.6084 5.5671 73.5688 5.73183 73.4895 5.88435C73.4163 6.03687 73.3125 6.1711 73.1783 6.28701C73.0441 6.39683 72.8855 6.48529 72.7025 6.5524C72.5255 6.61951 72.3333 6.65307 72.1259 6.65307C71.9124 6.65307 71.7141 6.61951 71.5311 6.5524C71.3541 6.48529 71.1955 6.39683 71.0552 6.28701C70.921 6.1711 70.8142 6.03687 70.7349 5.88435C70.6617 5.73183 70.6251 5.5671 70.6251 5.39018Z" fill="#FB5D1A"/>
<path d="M81.1126 12.0066C81.1126 11.9395 81.1126 11.8053 81.1126 11.604C81.1126 11.3965 81.1065 11.1617 81.0943 10.8993C81.0821 10.6309 81.0607 10.3472 81.0302 10.0482C80.9997 9.74929 80.9509 9.4717 80.8838 9.21546C80.7374 9.02633 80.5726 8.85856 80.3896 8.71213C80.2127 8.55961 79.9839 8.48335 79.7032 8.48335C79.2274 8.48335 78.8766 8.7945 78.6508 9.41679C78.4312 10.0391 78.3214 11.003 78.3214 12.3086C78.3214 12.8821 78.3458 13.4068 78.3946 13.8827C78.4495 14.3585 78.5288 14.7673 78.6325 15.109C78.7424 15.4506 78.8796 15.716 79.0444 15.9051C79.2152 16.0943 79.4165 16.1888 79.6483 16.1888C80.6245 16.1888 81.1126 14.7948 81.1126 12.0066ZM81.0027 7.98002C80.8868 7.36993 80.7252 6.80254 80.5177 6.27786C80.3103 5.74708 80.0602 5.28951 79.7673 4.90515C79.4806 4.52079 79.1511 4.2188 78.779 3.99916C78.4129 3.77953 78.0164 3.66971 77.5893 3.66971C77.3453 3.66971 77.1226 3.70022 76.9212 3.76123C76.726 3.82224 76.5552 3.89545 76.4088 3.98086C76.2623 4.06017 76.1403 4.13948 76.0427 4.2188C75.9512 4.29201 75.8841 4.34692 75.8414 4.38352L75.6034 4.06322C75.7498 3.87409 75.9268 3.69717 76.1342 3.53244C76.3477 3.36772 76.5796 3.22739 76.8297 3.11148C77.0798 2.99556 77.3422 2.90404 77.6167 2.83693C77.8974 2.76982 78.175 2.73627 78.4495 2.73627C79.3525 2.73627 80.1456 2.93455 80.8289 3.33111C81.5122 3.72157 82.0826 4.27675 82.5402 4.99667C82.9978 5.71658 83.3425 6.58596 83.5743 7.60481C83.8061 8.62367 83.9221 9.75539 83.9221 11C83.9221 12.0066 83.8183 12.8913 83.6109 13.6539C83.4096 14.4165 83.1198 15.0571 82.7415 15.5757C82.3633 16.0882 81.9026 16.4756 81.3596 16.7379C80.8228 16.9942 80.2157 17.1223 79.5385 17.1223C79.0688 17.1223 78.5899 17.0399 78.1018 16.8752C77.6198 16.7044 77.1805 16.4298 76.784 16.0516C76.3935 15.6733 76.0732 15.1791 75.8231 14.569C75.5729 13.9528 75.4478 13.1994 75.4478 12.3086C75.4478 11.5399 75.5546 10.8566 75.7682 10.2587C75.9878 9.66083 76.2806 9.1575 76.6467 8.74874C77.0128 8.33388 77.4368 8.01968 77.9187 7.80615C78.4007 7.58651 78.9101 7.4767 79.447 7.4767C79.6544 7.4767 79.8405 7.495 80.0052 7.5316C80.17 7.56211 80.3133 7.60176 80.4354 7.65057C80.5574 7.69938 80.6642 7.75429 80.7557 7.8153C80.8472 7.87021 80.9295 7.92511 81.0027 7.98002Z" fill="#FB5D1A"/>
<path d="M44.5069 29.6955H46.1724V24.4884C46.1724 24.3542 46.1572 24.2474 46.1266 24.1681C46.0961 24.0888 46.0534 24.0278 45.9985 23.985C45.9436 23.9362 45.8765 23.9057 45.7972 23.8935C45.724 23.8752 45.6416 23.8661 45.5501 23.8661C45.4159 23.8661 45.2481 23.8874 45.0468 23.9301C44.8516 23.9728 44.6441 24.0369 44.4245 24.1223C44.2049 24.2077 43.9822 24.3145 43.7564 24.4426C43.5368 24.5646 43.3385 24.705 43.1616 24.8636C42.9908 25.0222 42.8504 25.1991 42.7406 25.3944C42.6308 25.5896 42.5759 25.8001 42.5759 26.0258C42.5759 26.221 42.6003 26.3766 42.6491 26.4925C42.704 26.6084 42.765 26.6969 42.8322 26.7579C42.8993 26.8128 42.9664 26.8494 43.0335 26.8677C43.1067 26.8799 43.1586 26.886 43.1891 26.886C43.3416 26.886 43.4667 26.8616 43.5643 26.8128C43.6619 26.7579 43.7503 26.703 43.8297 26.6481C43.909 26.5871 43.9822 26.5322 44.0493 26.4834C44.1225 26.4285 44.2049 26.401 44.2964 26.401C44.3696 26.401 44.4458 26.4193 44.5251 26.4559C44.6106 26.4864 44.6868 26.5383 44.7539 26.6115C44.8271 26.6847 44.8882 26.7823 44.937 26.9043C44.9858 27.0203 45.0102 27.1636 45.0102 27.3345C45.0102 27.5785 44.9614 27.789 44.8638 27.9659C44.7723 28.1428 44.6502 28.2923 44.4977 28.4143C44.3513 28.5302 44.1805 28.6187 43.9852 28.6797C43.7961 28.7346 43.607 28.7621 43.4178 28.7621C43.125 28.7621 42.8596 28.7133 42.6217 28.6157C42.3898 28.5119 42.1916 28.3716 42.0268 28.1947C41.8621 28.0178 41.737 27.8103 41.6516 27.5724C41.5662 27.3345 41.5235 27.0813 41.5235 26.8128C41.5235 26.3919 41.5998 26.0075 41.7523 25.6597C41.9048 25.3059 42.1122 24.9886 42.3746 24.708C42.643 24.4274 42.9542 24.1833 43.308 23.9759C43.668 23.7624 44.0554 23.5854 44.4702 23.4451C44.8851 23.3048 45.3183 23.2011 45.7697 23.134C46.2212 23.0608 46.6727 23.0241 47.1241 23.0241C47.6244 23.0241 48.0118 23.073 48.2864 23.1706C48.567 23.2621 48.7714 23.375 48.8995 23.5092C49.0338 23.6434 49.1131 23.7837 49.1375 23.9301C49.1619 24.0766 49.1741 24.1986 49.1741 24.2962V29.6955H52.5418V25.2937C52.5418 24.287 52.673 23.4299 52.9353 22.7222C53.1976 22.0144 53.5362 21.4379 53.9511 20.9925C54.366 20.5411 54.8297 20.2147 55.3421 20.0133C55.8546 19.8059 56.364 19.7022 56.8704 19.7022C57.2181 19.7022 57.5476 19.7296 57.8588 19.7846C58.176 19.8334 58.4505 19.9096 58.6824 20.0133C58.9203 20.1171 59.1094 20.2482 59.2498 20.4068C59.3901 20.5594 59.4602 20.7393 59.4602 20.9468C59.4602 21.0383 59.445 21.1268 59.4145 21.2122C59.3901 21.2915 59.3535 21.3647 59.3047 21.4318C59.2559 21.4989 59.1979 21.5538 59.1308 21.5965C59.0698 21.6331 59.0057 21.6514 58.9386 21.6514C58.8288 21.6514 58.7312 21.6179 58.6458 21.5508C58.5604 21.4837 58.478 21.4013 58.3987 21.3037C58.3255 21.2 58.2523 21.0902 58.179 20.9742C58.1058 20.8522 58.0235 20.7424 57.932 20.6448C57.8405 20.5411 57.7367 20.4557 57.6208 20.3885C57.5049 20.3214 57.3676 20.2879 57.209 20.2879C56.8369 20.2879 56.541 20.3916 56.3213 20.599C56.1017 20.8004 55.9339 21.0993 55.818 21.4959C55.7021 21.8863 55.6258 22.3744 55.5892 22.9601C55.5587 23.5458 55.5435 24.2169 55.5435 24.9734V29.6955H57.3829V30.5008H55.5435V36.0649C55.5435 36.2418 55.58 36.3852 55.6533 36.495C55.7326 36.5987 55.8515 36.6506 56.0102 36.6506C56.181 36.6506 56.3396 36.6201 56.4861 36.5591C56.6325 36.4981 56.7606 36.4401 56.8704 36.3852L57.026 36.7238C56.8918 36.8153 56.7331 36.9099 56.5501 37.0075C56.3732 37.1112 56.1749 37.2058 55.9553 37.2912C55.7417 37.3827 55.5099 37.4559 55.2598 37.5108C55.0157 37.5718 54.7595 37.6023 54.491 37.6023C54.0762 37.6023 53.7406 37.5474 53.4844 37.4376C53.2281 37.3278 53.0299 37.1814 52.8896 36.9983C52.7492 36.8214 52.6546 36.6201 52.6058 36.3943C52.5631 36.1686 52.5418 35.9398 52.5418 35.708V30.5008H49.1741V35.0582C49.1741 35.888 49.0215 36.6109 48.7165 37.2271C48.4175 37.8433 48.0057 38.3558 47.481 38.7646C46.9564 39.1794 46.3371 39.4875 45.6233 39.6888C44.9156 39.8963 44.1561 40 43.3446 40C43.0335 40 42.7345 39.9725 42.4478 39.9176C42.161 39.8688 41.9079 39.7987 41.6882 39.7071C41.4686 39.6156 41.2947 39.5058 41.1666 39.3777C41.0324 39.2557 40.9653 39.1215 40.9653 38.975C40.9653 38.8652 40.9805 38.7524 41.011 38.6364C41.0415 38.5266 41.0873 38.426 41.1483 38.3344C41.2093 38.2429 41.2856 38.1667 41.3771 38.1057C41.4625 38.0446 41.5601 38.0141 41.6699 38.0141C41.737 38.0141 41.795 38.0477 41.8438 38.1148C41.8987 38.1819 41.9536 38.2643 42.0085 38.3619C42.0634 38.4656 42.1244 38.5754 42.1916 38.6913C42.2648 38.8073 42.3563 38.914 42.4661 39.0116C42.582 39.1154 42.7193 39.2008 42.8779 39.2679C43.0365 39.335 43.2348 39.3685 43.4727 39.3685C43.9425 39.3685 44.3452 39.2831 44.6807 39.1123C45.0224 38.9415 45.303 38.7005 45.5227 38.3893C45.7423 38.0782 45.904 37.706 46.0077 37.2729C46.1175 36.8458 46.1724 36.376 46.1724 35.8636V30.5008H44.5069V29.6955Z" fill="#FB5D1A"/>
<path d="M61.2814 32.505C61.2814 32.7002 61.3088 32.9138 61.3637 33.1456C61.4247 33.3713 61.5102 33.6001 61.62 33.832C61.7298 34.0638 61.864 34.2865 62.0226 34.5C62.1874 34.7074 62.3734 34.8935 62.5809 35.0582C62.7944 35.223 63.0293 35.3541 63.2855 35.4517C63.5418 35.5494 63.8224 35.5982 64.1275 35.5982C64.341 35.5982 64.5393 35.5738 64.7223 35.525C64.9053 35.4762 65.0761 35.409 65.2348 35.3236C65.3934 35.2382 65.5459 35.1406 65.6924 35.0308C65.8388 34.9149 65.9852 34.7928 66.1316 34.6647L66.3604 34.8844C66.2201 35.0735 66.0401 35.2809 65.8205 35.5067C65.6008 35.7324 65.3354 35.9459 65.0243 36.1473C64.7131 36.3425 64.3501 36.5072 63.9353 36.6414C63.5204 36.7696 63.0476 36.8336 62.5168 36.8336C61.986 36.8336 61.4675 36.739 60.9611 36.5499C60.4608 36.3547 60.0154 36.0649 59.625 35.6805C59.2345 35.2962 58.9203 34.8172 58.6824 34.2438C58.4505 33.6703 58.3346 32.9992 58.3346 32.2305C58.3346 31.6753 58.4048 31.1658 58.5451 30.7022C58.6854 30.2385 58.8745 29.8206 59.1125 29.4484C59.3565 29.0763 59.6372 28.7499 59.9544 28.4692C60.2778 28.1886 60.6164 27.9568 60.9702 27.7737C61.3241 27.5846 61.6841 27.4443 62.0501 27.3528C62.4223 27.2551 62.7792 27.2063 63.1208 27.2063C63.5723 27.2063 63.9658 27.2551 64.3013 27.3528C64.6369 27.4504 64.9145 27.5815 65.1341 27.7463C65.3599 27.911 65.5276 28.1032 65.6375 28.3228C65.7473 28.5363 65.8022 28.7621 65.8022 29C65.8022 29.2868 65.7198 29.546 65.5551 29.7779C65.3904 30.0036 65.1707 30.2019 64.8962 30.3727L61.2814 32.505ZM63.1208 30.6473C63.2001 30.5985 63.2642 30.5527 63.313 30.51C63.3679 30.4612 63.4106 30.4063 63.4411 30.3453C63.4716 30.2782 63.493 30.1988 63.5052 30.1073C63.5235 30.0097 63.5326 29.8907 63.5326 29.7504C63.5326 29.5979 63.5143 29.4301 63.4777 29.2471C63.4472 29.058 63.3923 28.881 63.313 28.7163C63.2337 28.5516 63.133 28.4143 63.011 28.3045C62.889 28.1947 62.7425 28.1398 62.5717 28.1398C62.3521 28.1398 62.163 28.2069 62.0043 28.3411C61.8518 28.4692 61.7237 28.637 61.62 28.8444C61.5224 29.0519 61.4431 29.2898 61.382 29.5582C61.3271 29.8206 61.2844 30.086 61.2539 30.3544C61.2234 30.6229 61.2051 30.8821 61.199 31.1323C61.1929 31.3763 61.1898 31.5838 61.1898 31.7546L63.1208 30.6473Z" fill="#FB5D1A"/>
<path d="M71.714 31.9651C71.714 31.8125 71.6652 31.6966 71.5676 31.6173C71.4699 31.538 71.3449 31.4983 71.1924 31.4983C70.9788 31.4983 70.7744 31.5472 70.5792 31.6448C70.3901 31.7424 70.2223 31.8858 70.0759 32.0749C69.9294 32.264 69.8135 32.4989 69.7281 32.7795C69.6427 33.0541 69.6 33.3744 69.6 33.7404C69.6 34.0943 69.6244 34.3871 69.6732 34.619C69.7281 34.8508 69.7983 35.0369 69.8837 35.1772C69.9752 35.3114 70.0789 35.406 70.1949 35.4609C70.3108 35.5158 70.4328 35.5433 70.5609 35.5433C70.7195 35.5433 70.869 35.5036 71.0093 35.4243C71.1496 35.3389 71.2717 35.2321 71.3754 35.104C71.4791 34.9759 71.5615 34.8325 71.6225 34.6739C71.6835 34.5153 71.714 34.3566 71.714 34.198V31.9651ZM70.2589 27.9568C70.0515 27.9568 69.8593 27.9812 69.6824 28.03C69.5054 28.0788 69.3529 28.1398 69.2248 28.213C69.0967 28.2862 68.996 28.3686 68.9228 28.4601C68.8496 28.5455 68.813 28.6279 68.813 28.7072C68.813 28.7987 68.8587 28.8658 68.9503 28.9085C69.0479 28.9451 69.1546 28.9909 69.2705 29.0458C69.3865 29.0946 69.4902 29.1678 69.5817 29.2654C69.6793 29.3569 69.7281 29.5003 69.7281 29.6955C69.7281 29.8236 69.7007 29.9426 69.6458 30.0524C69.5969 30.1561 69.5268 30.2507 69.4353 30.3361C69.3499 30.4154 69.2461 30.4795 69.1241 30.5283C69.0082 30.571 68.8862 30.5924 68.7581 30.5924C68.4164 30.5924 68.1388 30.4764 67.9253 30.2446C67.7179 30.0128 67.6141 29.7047 67.6141 29.3203C67.6141 28.9482 67.7118 28.6309 67.907 28.3686C68.1022 28.1001 68.3554 27.8805 68.6666 27.7097C68.9838 27.5388 69.3407 27.4138 69.7373 27.3345C70.1338 27.249 70.5304 27.2063 70.927 27.2063C71.4028 27.2063 71.8574 27.2582 72.2905 27.3619C72.7237 27.4656 73.105 27.6304 73.4344 27.8561C73.77 28.0818 74.0354 28.3686 74.2306 28.7163C74.432 29.0641 74.5326 29.485 74.5326 29.9792V35.1498C74.5326 35.2047 74.5356 35.2657 74.5417 35.3328C74.5479 35.3999 74.5631 35.4609 74.5875 35.5158C74.6119 35.5707 74.6485 35.6165 74.6973 35.6531C74.7461 35.6897 74.8163 35.708 74.9078 35.708C75.0176 35.708 75.1183 35.6683 75.2098 35.589C75.3074 35.5036 75.3929 35.4182 75.4661 35.3328L75.6948 35.525C75.6033 35.6531 75.4935 35.7934 75.3654 35.9459C75.2373 36.0984 75.0817 36.2418 74.8987 36.376C74.7156 36.5103 74.5021 36.6231 74.2581 36.7146C74.014 36.8062 73.7364 36.8519 73.4253 36.8519C73.0409 36.8519 72.6993 36.739 72.4003 36.5133C72.1014 36.2815 71.9062 35.9276 71.8146 35.4517C71.6194 35.7141 71.415 35.9337 71.2015 36.1106C70.9941 36.2876 70.7805 36.4309 70.5609 36.5408C70.3413 36.6506 70.1186 36.7299 69.8929 36.7787C69.6732 36.8275 69.4505 36.8519 69.2248 36.8519C68.9319 36.8519 68.6483 36.8062 68.3737 36.7146C68.0992 36.6231 67.8521 36.4798 67.6324 36.2845C67.4189 36.0832 67.245 35.8239 67.1108 35.5067C66.9827 35.1894 66.9186 34.802 66.9186 34.3444C66.9186 33.7892 67.0285 33.3347 67.2481 32.9809C67.4677 32.627 67.7545 32.3311 68.1083 32.0932C68.4683 31.8491 68.874 31.6417 69.3255 31.4709C69.783 31.3001 70.2497 31.1201 70.7256 30.931C71.0795 30.7906 71.3357 30.5832 71.4944 30.3087C71.6591 30.028 71.7414 29.7413 71.7414 29.4484C71.7414 28.997 71.6072 28.637 71.3388 28.3686C71.0764 28.094 70.7165 27.9568 70.2589 27.9568Z" fill="#FB5D1A"/>
<path d="M76.6832 28.9268C76.6466 28.6828 76.5856 28.4936 76.5002 28.3594C76.4208 28.2252 76.2836 28.1581 76.0883 28.1581C75.9846 28.1581 75.8931 28.1764 75.8138 28.213C75.7406 28.2496 75.6613 28.3015 75.5759 28.3686L75.3929 28.1398C75.5332 28.0239 75.6887 27.911 75.8596 27.8012C76.0365 27.6853 76.2256 27.5846 76.4269 27.4992C76.6283 27.4138 76.8449 27.3436 77.0767 27.2887C77.3085 27.2338 77.5526 27.2063 77.8088 27.2063C78.1749 27.2063 78.4708 27.2704 78.6965 27.3985C78.9222 27.5205 79.0991 27.6761 79.2273 27.8652C79.3615 28.0483 79.4561 28.2465 79.511 28.4601C79.5659 28.6736 79.6055 28.8658 79.6299 29.0366C79.8557 30.8852 80.1089 32.2854 80.3895 33.2371C80.6701 34.1889 81.0027 34.6647 81.387 34.6647C81.6006 34.6647 81.8049 34.5488 82.0002 34.317C82.2015 34.0851 82.3754 33.7679 82.5218 33.3652C82.6743 32.9626 82.7963 32.4928 82.8878 31.9559C82.9794 31.419 83.0251 30.8455 83.0251 30.2355C83.0251 29.8328 82.9977 29.4942 82.9427 29.2196C82.8878 28.939 82.8268 28.7041 82.7597 28.515C82.6926 28.3259 82.6316 28.1703 82.5767 28.0483C82.5218 27.9201 82.4943 27.8073 82.4943 27.7097C82.4943 27.6181 82.5309 27.5419 82.6042 27.4809C82.6774 27.4199 82.7628 27.368 82.8604 27.3253C82.9641 27.2826 83.0678 27.2521 83.1715 27.2338C83.2814 27.2155 83.3698 27.2063 83.4369 27.2063C83.6138 27.2063 83.742 27.2307 83.8213 27.2795C83.9006 27.3284 83.9647 27.4229 84.0135 27.5632C84.0684 27.7402 84.105 27.9751 84.1233 28.2679C84.1477 28.5546 84.1599 28.8627 84.1599 29.1922C84.1599 29.662 84.1263 30.1775 84.0592 30.7388C83.9982 31.3001 83.9006 31.8644 83.7664 32.4318C83.6383 32.9992 83.4735 33.5483 83.2722 34.079C83.0709 34.6098 82.8299 35.0826 82.5492 35.4975C82.2747 35.9063 81.9605 36.2357 81.6066 36.4859C81.2589 36.7299 80.8684 36.8519 80.4353 36.8519C79.9289 36.8519 79.4896 36.7055 79.1175 36.4126C78.7453 36.1198 78.428 35.7385 78.1657 35.2687C77.9095 34.7989 77.6959 34.2712 77.5251 33.6855C77.3543 33.0998 77.214 32.5141 77.1042 31.9285C77.0004 31.3367 76.915 30.7784 76.8479 30.2538C76.7869 29.723 76.732 29.2807 76.6832 28.9268Z" fill="#FB5D1A"/>
<path d="M88.0584 32.505C88.0584 32.7002 88.0858 32.9138 88.1407 33.1456C88.2018 33.3713 88.2872 33.6001 88.397 33.832C88.5068 34.0638 88.641 34.2865 88.7997 34.5C88.9644 34.7074 89.1505 34.8935 89.3579 35.0582C89.5714 35.223 89.8063 35.3541 90.0625 35.4517C90.3188 35.5494 90.5994 35.5982 90.9045 35.5982C91.118 35.5982 91.3163 35.5738 91.4993 35.525C91.6823 35.4762 91.8532 35.409 92.0118 35.3236C92.1704 35.2382 92.3229 35.1406 92.4694 35.0308C92.6158 34.9149 92.7622 34.7928 92.9086 34.6647L93.1374 34.8844C92.9971 35.0735 92.8171 35.2809 92.5975 35.5067C92.3778 35.7324 92.1124 35.9459 91.8013 36.1473C91.4902 36.3425 91.1271 36.5072 90.7123 36.6414C90.2974 36.7696 89.8246 36.8336 89.2938 36.8336C88.763 36.8336 88.2444 36.739 87.7381 36.5499C87.2378 36.3547 86.7924 36.0649 86.402 35.6805C86.0115 35.2962 85.6973 34.8172 85.4594 34.2438C85.2275 33.6703 85.1116 32.9992 85.1116 32.2305C85.1116 31.6753 85.1818 31.1658 85.3221 30.7022C85.4624 30.2385 85.6516 29.8206 85.8895 29.4484C86.1335 29.0763 86.4142 28.7499 86.7314 28.4692C87.0548 28.1886 87.3934 27.9568 87.7472 27.7737C88.1011 27.5846 88.461 27.4443 88.8271 27.3528C89.1992 27.2551 89.5562 27.2063 89.8978 27.2063C90.3493 27.2063 90.7428 27.2551 91.0783 27.3528C91.4139 27.4504 91.6915 27.5815 91.9111 27.7463C92.1369 27.911 92.3046 28.1032 92.4145 28.3228C92.5243 28.5363 92.5792 28.7621 92.5792 29C92.5792 29.2868 92.4968 29.546 92.3321 29.7779C92.1674 30.0036 91.9477 30.2019 91.6732 30.3727L88.0584 32.505ZM89.8978 30.6473C89.9771 30.5985 90.0412 30.5527 90.09 30.51C90.1449 30.4612 90.1876 30.4063 90.2181 30.3453C90.2486 30.2782 90.27 30.1988 90.2822 30.1073C90.3005 30.0097 90.3096 29.8907 90.3096 29.7504C90.3096 29.5979 90.2913 29.4301 90.2547 29.2471C90.2242 29.058 90.1693 28.881 90.09 28.7163C90.0107 28.5516 89.91 28.4143 89.788 28.3045C89.666 28.1947 89.5196 28.1398 89.3487 28.1398C89.1291 28.1398 88.94 28.2069 88.7813 28.3411C88.6288 28.4692 88.5007 28.637 88.397 28.8444C88.2994 29.0519 88.2201 29.2898 88.1591 29.5582C88.1041 29.8206 88.0614 30.086 88.0309 30.3544C88.0004 30.6229 87.9821 30.8821 87.976 31.1323C87.9699 31.3763 87.9669 31.5838 87.9669 31.7546L89.8978 30.6473Z" fill="#FB5D1A"/>
<path d="M99.7539 32.1481C99.7539 31.3794 99.7173 30.7662 99.644 30.3087C99.5769 29.845 99.4854 29.4942 99.3695 29.2563C99.2536 29.0122 99.1255 28.8536 98.9852 28.7804C98.8448 28.7011 98.7015 28.6614 98.5551 28.6614C98.3781 28.6614 98.2195 28.7102 98.0792 28.8078C97.9449 28.8993 97.826 29.0061 97.7223 29.1281C97.6246 29.2501 97.5392 29.3722 97.466 29.4942C97.3989 29.6162 97.341 29.7077 97.2921 29.7687V35.8819C97.2921 35.9612 97.28 36.0588 97.2556 36.1747C97.2311 36.2845 97.1701 36.3913 97.0725 36.495C96.981 36.5926 96.8407 36.675 96.6516 36.7421C96.4685 36.8153 96.2153 36.8519 95.892 36.8519C95.5686 36.8519 95.3124 36.8123 95.1233 36.7329C94.9402 36.6597 94.7999 36.5713 94.7023 36.4676C94.6047 36.3638 94.5437 36.2571 94.5193 36.1473C94.4949 36.0374 94.4827 35.949 94.4827 35.8819V28.817C94.4827 28.6401 94.44 28.4875 94.3546 28.3594C94.2752 28.2252 94.1379 28.1581 93.9427 28.1581C93.839 28.1581 93.7505 28.1764 93.6773 28.213C93.6041 28.2496 93.5248 28.3015 93.4394 28.3686L93.2472 28.1398C93.3875 28.0239 93.5431 27.911 93.714 27.8012C93.8909 27.6853 94.08 27.5846 94.2813 27.4992C94.4827 27.4138 94.6993 27.3436 94.9311 27.2887C95.1629 27.2338 95.407 27.2063 95.6632 27.2063C96.0598 27.2063 96.3679 27.2734 96.5875 27.4077C96.8071 27.5358 96.9688 27.6914 97.0725 27.8744C97.1762 28.0574 97.2373 28.2496 97.2556 28.4509C97.28 28.6462 97.2921 28.8109 97.2921 28.9451C97.5179 28.6218 97.7741 28.332 98.0609 28.0757C98.1768 27.9659 98.3049 27.8591 98.4452 27.7554C98.5916 27.6517 98.7442 27.5602 98.9028 27.4809C99.0675 27.3955 99.2384 27.3284 99.4153 27.2795C99.5983 27.2307 99.7844 27.2063 99.9735 27.2063C100.388 27.2063 100.754 27.2856 101.072 27.4443C101.395 27.6029 101.667 27.8683 101.886 28.2404C102.106 28.6126 102.274 29.1068 102.389 29.723C102.505 30.3331 102.563 31.0926 102.563 32.0017C102.563 32.8863 102.484 33.655 102.325 34.3078C102.167 34.9606 101.959 35.5158 101.703 35.9734C101.447 36.4309 101.157 36.8031 100.834 37.0898C100.51 37.3827 100.184 37.6115 99.8546 37.7762C99.5251 37.9409 99.2078 38.0538 98.9028 38.1148C98.6039 38.1819 98.3446 38.2185 98.1249 38.2246L98.0243 37.8494C98.2073 37.8067 98.3751 37.7396 98.5276 37.6481C98.6862 37.5566 98.8296 37.4223 98.9577 37.2454C99.0858 37.0685 99.1987 36.8458 99.2963 36.5774C99.3939 36.3028 99.4763 35.9612 99.5434 35.5524C99.6166 35.1437 99.6685 34.6617 99.699 34.1065C99.7356 33.5452 99.7539 32.8924 99.7539 32.1481Z" fill="#FB5D1A"/>
</svg>
