<svg width="96" height="40" viewBox="0 0 96 40" fill="none" xmlns="http://www.w3.org/2000/svg">
<g clip-path="url(#clip0)">
<path d="M6.77452 0H1.29858V27.2371H6.77452V0Z" fill="#FB5D1A"/>
<path d="M17.5126 0H12.0366V27.2371H17.5126V0Z" fill="#FB5D1A"/>
<path d="M28.2648 0H22.7888V27.2371H28.2648V0Z" fill="#FB5D1A"/>
<path d="M72.6854 0H67.2095V27.2371H72.6854V0Z" fill="#FB5D1A"/>
<path d="M83.4233 0H77.9474V27.2371H83.4233V0Z" fill="#FB5D1A"/>
<path d="M94.1756 0H88.6997V27.2371H94.1756V0Z" fill="#FB5D1A"/>
<path d="M61.3485 21.6185H34.1115V27.0945H61.3485V21.6185Z" fill="#FB5D1A"/>
<path d="M61.3485 10.8806H34.1115V16.3565H61.3485V10.8806Z" fill="#FB5D1A"/>
<path d="M61.3485 0.142609H34.1115V5.61855H61.3485V0.142609Z" fill="#FB5D1A"/>
<path d="M7.43049 40H5.93317V35.3369L4.50714 38.4742H3.50893L1.92604 35.2941V40H0.428711V32.1284H1.92604L3.93673 36.4064L5.93317 32.1284H7.43049V40Z" fill="#FB5D1A"/>
<path d="M12.5214 40H11.024V36.7629L8.72815 32.1284H10.4109L11.8369 35.3227L13.2629 32.1284H14.9171L12.5214 36.7629V40Z" fill="#FB5D1A"/>
<path d="M21.0348 35.3797H24.0152V36.6774H21.0348V38.7023H24.5286V40H19.5375V32.1284H24.5286V33.426H21.0348V35.3797Z" fill="#FB5D1A"/>
<path d="M27.2951 32.1284L28.8494 37.5615L30.3753 32.1284H31.9439L29.4198 40H28.2362L25.7264 32.1284H27.2951Z" fill="#FB5D1A"/>
<path d="M34.9242 35.3797H37.9189V36.6774H34.9242V38.7023H38.4322V40H33.4269V32.1284H38.4322V33.426H34.9242V35.3797Z" fill="#FB5D1A"/>
<path d="M46.1328 40H44.6355L41.7834 35.0802V40H40.2576V32.1284H41.7834L44.6355 37.0767V32.1284H46.0615L46.1328 40Z" fill="#FB5D1A"/>
<path d="M51.1524 33.426V40H49.6408V33.426H47.6301V32.1284H53.1916V33.426H51.1524Z" fill="#FB5D1A"/>
<path d="M64.8994 40H63.4733V35.3369L61.919 38.5027H60.9208L59.3949 35.3227V40.0285H57.8976V32.1284H59.3949L61.4199 36.4064L63.4163 32.1284H64.8423L64.8994 40Z" fill="#FB5D1A"/>
<path d="M68.4358 38.5027L67.9509 40.0285H66.3823L69.2344 32.1569H70.4465L73.2985 40.0285H71.6158L71.131 38.5027H68.4358ZM69.7763 34.2246L68.8779 37.2193H70.7317L69.7763 34.2246Z" fill="#FB5D1A"/>
<path d="M76.1649 37.7897V40H74.7389V32.1284H76.1649V35.7932L78.8601 32.1284H80.6569L78.1328 35.2799L80.8565 40H79.1596L77.2059 36.492L76.1649 37.7897Z" fill="#FB5D1A"/>
<path d="M83.8797 35.3797H86.8601V36.6774H83.8797V38.7023H87.4163V40H82.4252V32.1284H87.4163V33.426H83.8797V35.3797Z" fill="#FB5D1A"/>
<path d="M90.6962 36.8057V40H89.2701V32.1284H92.2648C92.9355 32.0958 93.5934 32.3202 94.1044 32.7558C94.3352 32.9777 94.5158 33.2466 94.6339 33.5443C94.7519 33.8419 94.8048 34.1615 94.7889 34.4813C94.7992 34.9439 94.6754 35.3995 94.4323 35.7932C94.1775 36.1587 93.8129 36.4334 93.3914 36.5776L95.1026 40H93.3058L91.8798 36.8057H90.6962ZM92.1222 35.5651C92.4244 35.5806 92.7209 35.4784 92.9493 35.2799C93.0474 35.1723 93.1231 35.0463 93.1721 34.9092C93.221 34.7721 93.2423 34.6267 93.2345 34.4813C93.2424 34.339 93.2198 34.1967 93.1682 34.0638C93.1165 33.931 93.037 33.8108 92.935 33.7112C92.711 33.5149 92.4198 33.4127 92.1222 33.426H90.6962V35.5651H92.1222Z" fill="#FB5D1A"/>
</g>
<defs>
<clipPath id="clip0">
<rect width="94.6025" height="40" fill="white" transform="translate(0.428711)"/>
</clipPath>
</defs>
</svg>
