<svg width="320" height="857" viewBox="0 0 320 857" fill="none" xmlns="http://www.w3.org/2000/svg">
<g clip-path="url(#clip0)">
<path d="M1053.41 453.601C1118.52 514.335 1208.29 518.871 1260 510.351V798H218V589.195C228.027 589.195 245.299 585.093 262.217 589.195C299.876 598.324 344.358 667.837 382.126 676.307C474.152 696.948 570.526 548.595 570.526 548.595C570.526 548.595 638.343 461.616 684.291 408.842C729.218 357.241 771.735 328 863.272 328C937.199 328 1008.2 411.422 1053.41 453.601Z" fill="#FFFAF4"/>
<path d="M107.099 397.545C17.2483 468.164 -106.642 473.438 -178 463.532V798H1260V555.208C1246.16 555.208 1222.33 550.439 1198.98 555.208C1147.01 565.824 1085.62 646.65 1033.5 656.5C906.5 680.5 773.5 508 773.5 508C773.5 508 679.91 406.864 616.5 345.5C554.5 285.5 495.824 251.5 369.5 251.5C267.478 251.5 169.5 348.5 107.099 397.545Z" fill="#FFF9F2"/>
<path d="M212 0C240.419 31.5504 314.606 93.1487 384.008 87.1391C470.759 79.6271 530 55 604.377 78.1247C650.677 92.5199 646.257 137.219 688.137 169.771C730.017 202.323 912.495 123.197 912.495 123.197C912.495 123.197 1041.13 65.6047 1053.59 123.197C1066.06 180.789 1014.7 249.398 1038.14 263.421C1056.88 274.638 1193.86 223.357 1260 196.313" stroke="#E17A0E" stroke-opacity="0.24"/>
<path d="M-180 631.669C-151.066 607.526 -101.344 572.244 -42.0753 556.243C25.5 538 142.663 524.964 191.172 599.201C215.132 635.869 189.128 677.5 218 709.5C246.691 741.299 294.941 720.863 331.5 738C363.5 753 372 779.5 387 798" stroke="#E4E4E4"/>
</g>
<defs>
<clipPath id="clip0">
<rect width="320" height="857" fill="white"/>
</clipPath>
</defs>
</svg>
