<svg width="149" height="40" viewBox="0 0 149 40" fill="none" xmlns="http://www.w3.org/2000/svg">
<path fill-rule="evenodd" clip-rule="evenodd" d="M37.3963 0.244525V15.1432H41.2433V10.1393H44.8566C48.2145 10.1393 50.0394 7.9092 50.0394 5.20467C50.0394 2.50013 48.2072 0.244525 44.8566 0.244525H37.3963ZM44.2763 3.59509C45.3019 3.59509 46.1304 4.17541 46.1304 5.20467C46.1304 6.20473 45.3019 6.7887 44.28 6.7887H41.2433V3.59509H44.2763Z" fill="#FB5D1A"/>
<path fill-rule="evenodd" clip-rule="evenodd" d="M57.0069 10.1393L59.5107 15.1432L63.9088 15.1469L60.8721 9.67208C62.281 9.17935 63.8431 7.79606 63.8431 5.20467C63.8431 2.43443 61.9671 0.244525 58.6603 0.244525H51.2V15.1432H55.0433V10.1393H57.0069ZM58.0799 3.59509C59.1092 3.59509 59.9341 4.15351 59.9341 5.18277C59.9341 6.23028 59.1274 6.7887 58.0799 6.7887H55.0433V3.59509H58.0799Z" fill="#FB5D1A"/>
<path fill-rule="evenodd" clip-rule="evenodd" d="M72.6319 0C68.066 0 64.6497 3.17172 64.6497 7.70483C64.6497 12.2379 68.0842 15.4097 72.6319 15.4097C77.1796 15.4097 80.585 12.2379 80.585 7.70483C80.585 3.17172 77.1979 0 72.6319 0ZM72.6209 3.39435C75.0773 3.39435 76.665 5.27037 76.665 7.70482C76.665 10.1174 75.0773 12.0153 72.6209 12.0153C70.1646 12.0153 68.5586 10.1393 68.5586 7.70482C68.5586 5.27037 70.1646 3.39435 72.6209 3.39435Z" fill="#FB5D1A"/>
<path fill-rule="evenodd" clip-rule="evenodd" d="M81.9573 0.244525V15.1432H85.8043V10.1393H89.4213C92.7791 10.1393 94.604 7.9092 94.604 5.20467C94.604 2.50013 92.7718 0.244525 89.4213 0.244525H81.9573ZM88.8373 3.59509C89.8666 3.59509 90.6915 4.17541 90.6915 5.20467C90.6915 6.20473 89.8666 6.7887 88.8373 6.7887H85.8007V3.59509H88.8373Z" fill="#FB5D1A"/>
<path d="M95.7647 15.1432V0.244525H106.685V3.59508H99.6043V5.92004H106.539V9.2706H99.6043V11.7926H106.685V15.1432H95.7647Z" fill="#FB5D1A"/>
<path fill-rule="evenodd" clip-rule="evenodd" d="M114.167 10.1393L116.671 15.1432L121.069 15.1469L118.032 9.67208C119.438 9.17935 121.003 7.79606 121.003 5.20467C121.003 2.43443 119.127 0.244525 115.821 0.244525H108.36V15.1432H112.204V10.1393H114.167ZM115.24 3.59509C116.266 3.59509 117.094 4.15351 117.094 5.18277C117.094 6.23028 116.266 6.7887 115.24 6.7887H112.204V3.59509H115.24Z" fill="#FB5D1A"/>
<path d="M125.672 15.1432V3.59508H121.496V0.244525H133.668V3.59508H129.515V15.1432H125.672Z" fill="#FB5D1A"/>
<path d="M139.008 15.1432V9.1246L133.358 0.244525H137.691L140.928 5.7412L144.122 0.244525H148.476L142.848 9.1246V15.1432H139.008Z" fill="#FB5D1A"/>
<path fill-rule="evenodd" clip-rule="evenodd" d="M37.3963 30.9106V16.0119H45.1486C47.8787 16.0119 49.1634 17.9353 49.1634 19.8114C49.1634 21.6874 48.1196 22.9137 46.8275 23.2276C48.2875 23.4722 49.4299 24.9905 49.4299 26.8775C49.4299 29.0455 48.0977 30.9215 45.415 30.9215L37.3963 30.9106ZM45.561 20.5267C45.5759 20.2052 45.4513 19.8928 45.2192 19.6698C44.987 19.4468 44.67 19.3348 44.3493 19.3624H40.9257V21.6874H44.3493C44.6711 21.7226 44.992 21.6136 45.2258 21.3897C45.4596 21.1657 45.5824 20.8498 45.561 20.5267ZM44.4734 25.0307C45.3347 25.0307 45.8274 25.5489 45.8274 26.2789C45.8274 27.0928 45.3128 27.56 44.4734 27.5527H40.9257V25.0307H44.4734Z" fill="#FB5D1A"/>
<path fill-rule="evenodd" clip-rule="evenodd" d="M56.9595 25.9139L59.4597 30.9106L63.8614 30.9142L60.8247 25.4394C62.2299 24.9467 63.792 23.5634 63.792 20.972C63.792 18.2018 61.8978 16.0119 58.6129 16.0119H51.1526V30.9106H54.9922V25.9139H56.9595ZM58.0326 19.3625C59.0582 19.3625 59.883 19.9209 59.883 20.9501C59.883 21.9977 59.0582 22.5561 58.0326 22.5561H54.9922V19.3625H58.0326Z" fill="#FB5D1A"/>
<path fill-rule="evenodd" clip-rule="evenodd" d="M72.5772 15.7674C68.0186 15.7674 64.6023 18.9391 64.6023 23.4722C64.6023 28.0053 68.0222 31.177 72.5772 31.177C77.1322 31.177 80.5266 28.0053 80.5266 23.4722C80.5266 18.9391 77.1359 15.7674 72.5772 15.7674ZM72.5772 19.1617C75.0335 19.1617 76.6176 21.0377 76.6176 23.4722H76.6139C76.6139 25.8847 75.0299 27.7826 72.5736 27.7826C70.1172 27.7826 68.5076 25.9066 68.5076 23.4722C68.5076 21.0377 70.1209 19.1617 72.5772 19.1617Z" fill="#FB5D1A"/>
<path d="M90.6659 30.9106L86.7569 25.3044L85.7714 26.5563V30.9106H81.9099V16.0119H85.7714V22.1327L90.3484 16.0119H95.0932L89.2789 22.994L95.3778 30.9215L90.6659 30.9106Z" fill="#FB5D1A"/>
<path d="M95.9581 30.9106V16.0119H106.882V19.3624H99.8014V21.6874H106.736V25.038H99.8014V27.56H106.882V30.9106H95.9581Z" fill="#FB5D1A"/>
<path fill-rule="evenodd" clip-rule="evenodd" d="M114.364 25.9139L116.864 30.9106L121.266 30.9142L118.23 25.4394C119.635 24.9467 121.2 23.5634 121.2 20.972C121.2 18.2018 119.324 16.0119 116.018 16.0119H108.557V30.9106H112.415V25.9139H114.364ZM115.437 19.3625C116.463 19.3625 117.292 19.9209 117.292 20.9501C117.292 21.9977 116.463 22.5561 115.452 22.5561H112.415V19.3625H115.437Z" fill="#FB5D1A"/>
<path d="M40.3052 38.8745L39.7249 37.0022L39.1446 38.8745H38.3708L37.5314 36.1335H38.2832L38.7979 37.9584L39.4183 36.1335H40.0607L40.6629 37.9803L41.1593 36.1335H41.9148L41.079 38.8818L40.3052 38.8745Z" fill="#FB5D1A"/>
<path d="M47.2108 38.8745L46.6305 37.0022L46.0501 38.8745H45.2764L44.4405 36.1335H45.1705L45.6851 37.9803L46.3056 36.1335H46.948L47.5539 37.9803L48.0648 36.1335H48.8204L47.9845 38.8818L47.2108 38.8745Z" fill="#FB5D1A"/>
<path d="M54.1163 38.8745L53.536 37.0022L52.9556 38.8745H52.1928L51.3461 36.1335H52.0979L52.6089 37.9803L53.2111 36.1335H53.8572L54.4594 37.9803L54.9704 36.1335H55.7295L54.8901 38.8818L54.1163 38.8745Z" fill="#FB5D1A"/>
<path d="M58.31 38.4767C58.31 38.2907 58.4221 38.123 58.5939 38.0518C58.7658 37.9806 58.9636 38.02 59.0951 38.1515C59.2266 38.283 59.266 38.4808 59.1948 38.6527C59.1236 38.8245 58.9559 38.9366 58.7699 38.9366C58.5176 38.9326 58.3139 38.729 58.31 38.4767Z" fill="#FB5D1A"/>
<path fill-rule="evenodd" clip-rule="evenodd" d="M63.1095 39.922V38.5205C63.3007 38.8017 63.6162 38.9731 63.9562 38.9804C64.6607 38.9804 65.1753 38.4365 65.1753 37.5204C65.1753 36.6043 64.6607 36.0824 63.9562 36.0824C63.624 36.0789 63.3097 36.2333 63.1095 36.4985V36.1335H62.3795V39.922H63.1095ZM64.2492 36.9475C64.3809 37.0979 64.4452 37.2958 64.4271 37.4949C64.4474 37.6952 64.384 37.895 64.252 38.047C64.12 38.199 63.9311 38.2898 63.7299 38.2978C63.486 38.2904 63.2582 38.1738 63.1095 37.9803V37.0131C63.2576 36.8193 63.4861 36.7037 63.7299 36.6992C63.9297 36.7074 64.1174 36.7971 64.2492 36.9475Z" fill="#FB5D1A"/>
<path d="M68.2267 38.8745V36.1335H68.9566V36.4985C69.1734 36.235 69.4918 36.0758 69.8326 36.0605V36.7649C69.7671 36.7582 69.701 36.7582 69.6355 36.7649C69.3756 36.7682 69.1292 36.8808 68.9566 37.0752V38.9001L68.2267 38.8745Z" fill="#FB5D1A"/>
<path fill-rule="evenodd" clip-rule="evenodd" d="M74.0919 36.035C73.2856 36.035 72.632 36.6886 72.632 37.4949C72.6118 37.8879 72.7592 38.2711 73.0374 38.5494C73.3157 38.8276 73.6989 38.975 74.0919 38.9548C74.8982 38.9548 75.5518 38.3012 75.5518 37.4949C75.5518 36.6886 74.8982 36.035 74.0919 36.035ZM74.0229 36.877C74.4025 36.8448 74.7402 37.1171 74.789 37.4949H74.7817C74.802 37.6958 74.7382 37.8962 74.6054 38.0483C74.4726 38.2005 74.2827 38.2908 74.0809 38.2979C73.7 38.2967 73.3875 37.9958 73.372 37.6152C73.3565 37.2345 73.6434 36.9092 74.0229 36.877Z" fill="#FB5D1A"/>
<path fill-rule="evenodd" clip-rule="evenodd" d="M79.3185 39.922V38.5205C79.5098 38.8017 79.8253 38.9731 80.1653 38.9803C80.8734 38.9803 81.3843 38.4365 81.3843 37.5204C81.3843 36.6043 80.8734 36.0824 80.1653 36.0824C79.8333 36.0801 79.5196 36.2342 79.3185 36.4984V36.1335H78.5886V39.922H79.3185ZM80.4607 36.9462C80.5932 37.0967 80.658 37.2951 80.6398 37.4949C80.6602 37.6958 80.5963 37.8961 80.4636 38.0483C80.3308 38.2004 80.1409 38.2908 79.9391 38.2978C79.6952 38.2899 79.4677 38.1734 79.3186 37.9803V37.0131C79.4667 36.8192 79.6952 36.7037 79.9391 36.6992C80.1395 36.7064 80.3281 36.7957 80.4607 36.9462Z" fill="#FB5D1A"/>
<path fill-rule="evenodd" clip-rule="evenodd" d="M84.6654 36.4722C84.3967 36.7437 84.2504 37.1131 84.2604 37.4949C84.2486 37.8843 84.4006 38.2608 84.6795 38.5328C84.9585 38.8048 85.3387 38.9473 85.7277 38.9256C86.1375 38.9439 86.5404 38.8144 86.8628 38.5606L86.5379 38.0825C86.3331 38.2536 86.0749 38.3479 85.808 38.3489C85.4246 38.3844 85.0795 38.1161 85.0196 37.7358H87.0599V37.5642C87.0599 36.67 86.5087 36.0568 85.6839 36.0568C85.302 36.0507 84.9341 36.2008 84.6654 36.4722ZM85.0123 37.2358C85.0377 36.8891 85.3369 36.6272 85.6839 36.6481C85.8529 36.633 86.0208 36.687 86.1494 36.7977C86.2779 36.9084 86.3562 37.0664 86.3664 37.2358H85.0123Z" fill="#FB5D1A"/>
<path d="M90.1074 38.8745V36.1335H90.8374V36.4985C91.0542 36.235 91.3725 36.0758 91.7134 36.0605V36.7649C91.6478 36.7582 91.5818 36.7582 91.5163 36.7649C91.2564 36.7682 91.0099 36.8808 90.8374 37.0752V38.9001L90.1074 38.8745Z" fill="#FB5D1A"/>
<path d="M94.8266 38.1847V36.7576H94.374V36.1335H94.8266V35.3743H95.5566V36.1335H96.115V36.7649H95.5566V37.9986C95.5566 38.1738 95.6478 38.3052 95.8084 38.3052C95.8999 38.3098 95.9898 38.2798 96.0603 38.2212L96.2136 38.7723C96.0397 38.9027 95.8243 38.965 95.6077 38.9475C95.3955 38.9803 95.1802 38.9114 95.0265 38.7613C94.8729 38.6113 94.7988 38.3977 94.8266 38.1847Z" fill="#FB5D1A"/>
<path d="M99.1371 39.3016C99.2107 39.3291 99.2885 39.3439 99.367 39.3454C99.5178 39.3619 99.6631 39.2834 99.732 39.1483L99.8342 38.9074L98.7356 36.1335H99.5094L100.239 38.046L100.969 36.1335H101.743L100.451 39.3308C100.3 39.7661 99.8695 40.0408 99.4108 39.995C99.2878 39.9953 99.1653 39.9806 99.0458 39.9512L99.1371 39.3016Z" fill="#FB5D1A"/>
<path fill-rule="evenodd" clip-rule="evenodd" d="M104.568 35.0787V38.8745L105.298 38.9001V38.5351C105.499 38.8002 105.812 38.9557 106.145 38.9548C106.838 38.9548 107.364 38.3891 107.364 37.4949C107.364 36.6007 106.846 36.0569 106.145 36.0569C105.811 36.0525 105.496 36.2087 105.298 36.4766V35.0787H104.568ZM106.617 37.4985C106.617 37.9022 106.318 38.2437 105.918 38.2979C105.675 38.2936 105.446 38.1813 105.294 37.9913V37.0168C105.443 36.821 105.673 36.704 105.918 36.6992C106.318 36.7534 106.617 37.0949 106.617 37.4985Z" fill="#FB5D1A"/>
<path d="M110.43 38.8745V36.1335H111.16V36.4985C111.375 36.2335 111.694 36.074 112.036 36.0605V36.7649C111.969 36.7581 111.902 36.7581 111.835 36.7649C111.576 36.7692 111.331 36.8817 111.16 37.0752V38.9001L110.43 38.8745Z" fill="#FB5D1A"/>
<path fill-rule="evenodd" clip-rule="evenodd" d="M116.284 36.035C115.478 36.035 114.824 36.6886 114.824 37.4949C114.805 37.8876 114.953 38.2701 115.231 38.5481C115.509 38.8261 115.891 38.9738 116.284 38.9548C117.091 38.9548 117.744 38.3012 117.744 37.4949C117.744 36.6886 117.091 36.035 116.284 36.035ZM116.217 36.8845C116.594 36.8511 116.931 37.1199 116.981 37.4949C117.002 37.6964 116.937 37.8973 116.804 38.0496C116.67 38.2019 116.479 38.2918 116.277 38.2979C115.899 38.2964 115.588 37.9977 115.572 37.6197C115.556 37.2417 115.84 36.9179 116.217 36.8845Z" fill="#FB5D1A"/>
<path d="M122.58 38.8745L121.85 37.8161L121.522 38.1811V38.8891H120.792V35.0787H121.522V37.3489L122.562 36.1335H123.449L122.354 37.3781L123.478 38.8818L122.58 38.8745Z" fill="#FB5D1A"/>
<path fill-rule="evenodd" clip-rule="evenodd" d="M126.561 36.4736C126.293 36.7449 126.147 37.1137 126.157 37.4949C126.145 37.885 126.298 38.2621 126.577 38.5342C126.857 38.8063 127.238 38.9483 127.628 38.9256C128.037 38.944 128.438 38.8145 128.759 38.5606L128.435 38.0825C128.23 38.2544 127.972 38.3488 127.705 38.349C127.32 38.3865 126.973 38.1176 126.913 37.7358H128.956V37.5642C128.956 36.67 128.405 36.0569 127.577 36.0569C127.196 36.0518 126.829 36.2022 126.561 36.4736ZM126.905 37.2284C126.934 36.8847 127.232 36.6271 127.577 36.6481C127.745 36.634 127.911 36.6872 128.04 36.796C128.169 36.9049 128.249 37.0605 128.263 37.2284H126.905Z" fill="#FB5D1A"/>
<path d="M132.004 38.8745V36.1335H132.734V36.4985C132.95 36.2335 133.269 36.074 133.61 36.0605V36.7649C133.543 36.7581 133.476 36.7581 133.409 36.7649C133.15 36.7683 132.905 36.881 132.734 37.0752V38.9001L132.004 38.8745Z" fill="#FB5D1A"/>
<path d="M135.99 38.4767C135.99 38.2227 136.196 38.0168 136.45 38.0168C136.704 38.0168 136.909 38.2227 136.909 38.4767C136.909 38.7307 136.704 38.9366 136.45 38.9366C136.197 38.9327 135.994 38.729 135.99 38.4767Z" fill="#FB5D1A"/>
<path fill-rule="evenodd" clip-rule="evenodd" d="M141.716 38.5825V38.8745H142.454V37.097C142.454 36.305 141.881 36.0568 141.249 36.0568C140.807 36.0414 140.375 36.1911 140.037 36.4766L140.322 36.9839C140.533 36.7782 140.816 36.6619 141.11 36.6591C141.475 36.6591 141.716 36.8415 141.716 37.1226V37.4876C141.489 37.2531 141.17 37.1303 140.844 37.1518C140.597 37.1288 140.352 37.2126 140.17 37.3821C139.989 37.5516 139.889 37.7905 139.895 38.0387C139.895 38.2868 139.996 38.5243 140.175 38.6959C140.354 38.8676 140.596 38.9585 140.844 38.9475C141.174 38.9605 141.494 38.8269 141.716 38.5825ZM141.716 37.8708V38.2139C141.568 38.3762 141.355 38.4634 141.136 38.4511C140.851 38.4511 140.618 38.3051 140.618 38.0423C140.618 37.7795 140.851 37.6263 141.136 37.6263C141.356 37.6158 141.57 37.7057 141.716 37.8708Z" fill="#FB5D1A"/>
<path fill-rule="evenodd" clip-rule="evenodd" d="M145.907 36.4734C145.639 36.7446 145.492 37.1134 145.501 37.4949C145.489 37.8856 145.642 38.2634 145.923 38.5356C146.203 38.8079 146.586 38.9494 146.976 38.9256C147.385 38.944 147.786 38.8144 148.107 38.5606L147.782 38.0825C147.578 38.2539 147.319 38.3482 147.052 38.349C146.668 38.3865 146.32 38.1176 146.26 37.7358H148.304V37.5642C148.304 36.67 147.749 36.0569 146.925 36.0569C146.543 36.0518 146.176 36.2022 145.907 36.4734ZM146.253 37.2358C146.278 36.8891 146.578 36.6272 146.925 36.6481C147.094 36.633 147.262 36.687 147.39 36.7977C147.519 36.9084 147.597 37.0664 147.607 37.2358H146.253Z" fill="#FB5D1A"/>
<path fill-rule="evenodd" clip-rule="evenodd" d="M15.3294 0.0509091C23.7955 0.0509091 30.6587 6.9141 30.6587 15.3803C30.6587 24.4136 20.3698 33.4908 15.3294 39.6773C10.1247 33.1733 0 24.264 0 15.3803C0 6.9141 6.86319 0.0509091 15.3294 0.0509091ZM16.1396 26.83C22.3059 26.3937 27.0192 21.1524 26.8009 14.9745C26.5826 8.7966 21.5111 3.90114 15.3293 3.90114C9.14753 3.90114 4.07601 8.7966 3.85769 14.9745C3.63938 21.1524 8.35268 26.3937 14.519 26.83V28.4433H14.2781V28.9178H13.8694V35.3415H16.7892V28.9178H16.3805V28.4433H16.1396V26.83Z" fill="#FB5D1A"/>
<path fill-rule="evenodd" clip-rule="evenodd" d="M15.3512 5.87626C20.6129 5.87828 24.8773 10.1443 24.8773 15.406C24.8788 16.0571 24.8128 16.7066 24.6802 17.3441L20.899 14.7527V11.7781H18.9025V13.384L15.4169 10.9933L6.01855 17.3441C5.8921 16.706 5.83217 16.0565 5.83971 15.406C5.8397 10.15 10.0952 5.88633 15.3512 5.87626Z" fill="#FB5D1A"/>
<path fill-rule="evenodd" clip-rule="evenodd" d="M13.2271 18.0157H14.8951V19.6508H13.2271V18.0157ZM14.8951 20.5706V22.2093H13.2271V20.5596L14.8951 20.5706ZM15.8039 18.0157H17.4719V19.6508H15.8039V18.0157ZM17.4719 20.5706V22.2093H15.8039V20.5596L17.4719 20.5706ZM24.1511 19.0741L15.3513 13.5993L6.54787 19.0741C8.02718 22.6287 11.4994 24.9445 15.3495 24.9445C19.1996 24.9445 22.6718 22.6287 24.1511 19.0741Z" fill="#FB5D1A"/>
<path fill-rule="evenodd" clip-rule="evenodd" d="M23.6838 19.2091L15.3512 14.03L9.36914 17.7492C10.3769 18.8706 11.5528 19.8285 12.8547 20.5888V20.1909H15.2673V21.7093L15.4352 21.7677V20.1909H17.8441V22.3808C18.5971 22.5027 19.3588 22.5638 20.1216 22.5633C20.461 22.5633 20.7932 22.5633 21.1253 22.5268C22.217 21.6417 23.091 20.5179 23.6802 19.242L23.6838 19.2091ZM29.8156 18.8113C28.5364 19.9709 27.0607 20.893 25.4576 21.5341C28.7557 16.0855 27.1575 9.0046 21.839 5.50078C16.5204 1.99696 9.3836 3.32336 5.67912 8.50413C5.67912 8.36909 5.67912 8.23404 5.67912 8.09535C5.67464 6.47004 5.94616 4.85577 6.48208 3.32135C11.0283 -0.0112789 17.0615 -0.506465 22.0903 2.04028C27.119 4.58703 30.29 9.74358 30.2937 15.3804C30.2866 16.5397 30.1283 17.693 29.8229 18.8113H29.8156ZM7.82152 15.6943C7.2922 14.8417 6.85539 13.9351 6.51852 12.9898C7.72985 8.56381 12.0299 5.71771 16.5774 6.33215C21.1248 6.94659 24.5153 10.8318 24.5086 15.4206C24.5076 15.8577 24.4771 16.2942 24.4174 16.7272L21.2712 14.5738V11.4094H18.5302V12.6795L15.4168 10.5444L7.82152 15.6943ZM15.4351 17.6579H17.844V20.0376H15.4351V17.6433V17.6579ZM12.8547 17.6579H15.2672V20.0376H12.8547V17.6579Z" fill="#FB5D1A"/>
</svg>
