<svg width="162" height="24" viewBox="0 0 162 24" fill="none" xmlns="http://www.w3.org/2000/svg">
<path fill-rule="evenodd" clip-rule="evenodd" d="M12.0626 20.517L6.07977 23.8552C5.5316 24.161 4.83808 23.9667 4.53077 23.4211C4.3981 23.1856 4.35435 22.9107 4.40739 22.6459L5.74854 15.9514C5.82603 15.5646 5.69575 15.1656 5.40464 14.898L0.365875 10.2666C-0.0957975 9.84222 -0.124409 9.12574 0.30197 8.66627C0.486032 8.46792 0.735243 8.34154 1.00467 8.30993L7.81641 7.51065C8.20995 7.46447 8.55102 7.21785 8.71676 6.85962L11.5855 0.659095C11.8483 0.0909773 12.5242 -0.157509 13.095 0.104085C13.3414 0.217012 13.5392 0.413846 13.6527 0.659095L16.5214 6.85962C16.6871 7.21785 17.0282 7.46447 17.4218 7.51065L24.2335 8.30993C24.8576 8.38316 25.3039 8.94607 25.2303 9.56722C25.1986 9.83536 25.0716 10.0834 24.8723 10.2666L19.8335 14.898C19.5424 15.1656 19.4121 15.5646 19.4896 15.9514L20.8308 22.6459C20.9537 23.2593 20.5537 23.8556 19.9373 23.9779C19.6713 24.0307 19.395 23.9872 19.1584 23.8552L13.1755 20.517C12.8299 20.3241 12.4083 20.3241 12.0626 20.517Z" fill="#FB5D1A"/>
<path fill-rule="evenodd" clip-rule="evenodd" d="M46.1994 20.517L40.2165 23.8552C39.6683 24.161 38.9748 23.9667 38.6675 23.4211C38.5348 23.1856 38.4911 22.9107 38.5441 22.6459L39.8853 15.9514C39.9627 15.5646 39.8325 15.1656 39.5414 14.898L34.5026 10.2666C34.0409 9.84222 34.0123 9.12574 34.4387 8.66627C34.6228 8.46792 34.872 8.34154 35.1414 8.30993L41.9531 7.51065C42.3467 7.46447 42.6877 7.21785 42.8535 6.85962L45.7222 0.659095C45.9851 0.0909773 46.6609 -0.157509 47.2317 0.104085C47.4781 0.217012 47.6759 0.413846 47.7894 0.659095L50.6581 6.85962C50.8239 7.21785 51.1649 7.46447 51.5585 7.51065L58.3702 8.30993C58.9943 8.38316 59.4406 8.94607 59.3671 9.56722C59.3353 9.83536 59.2083 10.0834 59.009 10.2666L53.9702 14.898C53.6791 15.1656 53.5489 15.5646 53.6263 15.9514L54.9675 22.6459C55.0904 23.2593 54.6904 23.8556 54.0741 23.9779C53.808 24.0307 53.5318 23.9872 53.2951 23.8552L47.3123 20.517C46.9666 20.3241 46.545 20.3241 46.1994 20.517Z" fill="#FB5D1A"/>
<path fill-rule="evenodd" clip-rule="evenodd" d="M80.3364 20.517L74.3536 23.8552C73.8054 24.161 73.1119 23.9667 72.8046 23.4211C72.6719 23.1856 72.6281 22.9107 72.6812 22.6459L74.0223 15.9514C74.0998 15.5646 73.9696 15.1656 73.6784 14.898L68.6397 10.2666C68.178 9.84222 68.1494 9.12574 68.5758 8.66627C68.7598 8.46792 69.009 8.34154 69.2785 8.30993L76.0902 7.51065C76.4838 7.46447 76.8248 7.21785 76.9906 6.85962L79.8593 0.659095C80.1221 0.0909773 80.798 -0.157509 81.3688 0.104085C81.6152 0.217012 81.813 0.413846 81.9265 0.659095L84.7952 6.85962C84.961 7.21785 85.302 7.46447 85.6956 7.51065L92.5073 8.30993C93.1314 8.38316 93.5777 8.94607 93.5041 9.56722C93.4724 9.83536 93.3454 10.0834 93.1461 10.2666L88.1073 14.898C87.8162 15.1656 87.6859 15.5646 87.7634 15.9514L89.1046 22.6459C89.2275 23.2593 88.8275 23.8556 88.2111 23.9779C87.9451 24.0307 87.6688 23.9872 87.4322 23.8552L81.4493 20.517C81.1037 20.3241 80.6821 20.3241 80.3364 20.517Z" fill="#FB5D1A"/>
<path fill-rule="evenodd" clip-rule="evenodd" d="M114.473 20.517L108.49 23.8552C107.942 24.161 107.249 23.9667 106.941 23.4211C106.809 23.1856 106.765 22.9107 106.818 22.6459L108.159 15.9514C108.237 15.5646 108.106 15.1656 107.815 14.898L102.776 10.2666C102.315 9.84222 102.286 9.12574 102.712 8.66627C102.897 8.46792 103.146 8.34154 103.415 8.30993L110.227 7.51065C110.62 7.46447 110.962 7.21785 111.127 6.85962L113.996 0.659095C114.259 0.0909773 114.935 -0.157509 115.506 0.104085C115.752 0.217012 115.95 0.413846 116.063 0.659095L118.932 6.85962C119.098 7.21785 119.439 7.46447 119.832 7.51065L126.644 8.30993C127.268 8.38316 127.714 8.94607 127.641 9.56722C127.609 9.83536 127.482 10.0834 127.283 10.2666L122.244 14.898C121.953 15.1656 121.823 15.5646 121.9 15.9514L123.241 22.6459C123.364 23.2593 122.964 23.8556 122.348 23.9779C122.082 24.0307 121.806 23.9872 121.569 23.8552L115.586 20.517C115.24 20.3241 114.819 20.3241 114.473 20.517Z" fill="#FB5D1A"/>
<path fill-rule="evenodd" clip-rule="evenodd" d="M148.61 20.517L142.627 23.8552C142.079 24.161 141.386 23.9667 141.078 23.4211C140.946 23.1856 140.902 22.9107 140.955 22.6459L142.296 15.9514C142.374 15.5646 142.243 15.1656 141.952 14.898L136.913 10.2666C136.452 9.84222 136.423 9.12574 136.849 8.66627C137.034 8.46792 137.283 8.34154 137.552 8.30993L144.364 7.51065C144.757 7.46447 145.099 7.21785 145.264 6.85962L148.133 0.659095C148.396 0.0909773 149.072 -0.157509 149.642 0.104085C149.889 0.217012 150.087 0.413846 150.2 0.659095L153.069 6.85962C153.235 7.21785 153.576 7.46447 153.969 7.51065L160.781 8.30993C161.405 8.38316 161.851 8.94607 161.778 9.56722C161.746 9.83536 161.619 10.0834 161.42 10.2666L156.381 14.898C156.09 15.1656 155.96 15.5646 156.037 15.9514L157.378 22.6459C157.501 23.2593 157.101 23.8556 156.485 23.9779C156.219 24.0307 155.943 23.9872 155.706 23.8552L149.723 20.517C149.377 20.3241 148.956 20.3241 148.61 20.517Z" fill="#FB5D1A"/>
</svg>
