<svg width="26" height="24" viewBox="0 0 26 24" fill="none" xmlns="http://www.w3.org/2000/svg">
<path fill-rule="evenodd" clip-rule="evenodd" d="M12.0626 20.517L6.07977 23.8552C5.5316 24.161 4.83808 23.9667 4.53077 23.4211C4.3981 23.1856 4.35435 22.9107 4.40739 22.6459L5.74854 15.9514C5.82603 15.5646 5.69575 15.1656 5.40464 14.898L0.365875 10.2666C-0.0957975 9.84222 -0.124409 9.12574 0.30197 8.66627C0.486032 8.46792 0.735243 8.34154 1.00467 8.30993L7.81641 7.51065C8.20995 7.46447 8.55102 7.21785 8.71676 6.85962L11.5855 0.659095C11.8483 0.0909773 12.5242 -0.157509 13.095 0.104085C13.3414 0.217012 13.5392 0.413846 13.6527 0.659095L16.5214 6.85962C16.6871 7.21785 17.0282 7.46447 17.4218 7.51065L24.2335 8.30993C24.8576 8.38316 25.3039 8.94607 25.2303 9.56722C25.1986 9.83536 25.0716 10.0834 24.8723 10.2666L19.8335 14.898C19.5424 15.1656 19.4121 15.5646 19.4896 15.9514L20.8308 22.6459C20.9537 23.2593 20.5537 23.8556 19.9373 23.9779C19.6713 24.0307 19.395 23.9872 19.1584 23.8552L13.1755 20.517C12.8299 20.3241 12.4083 20.3241 12.0626 20.517Z" fill="#FB5D1A"/>
</svg>
