<svg width="1440" height="794" viewBox="0 0 1440 794" fill="none" xmlns="http://www.w3.org/2000/svg">
<rect y="1" width="1440" height="792" fill="#FFF9F2"/>
<g opacity="0.03">
<path d="M0 43.867C0 43.867 10.8278 35.848 13.9358 22.78C17.0438 9.712 28.5734 1 28.5734 1" stroke="#FB5D1A" stroke-width="2" stroke-miterlimit="10"/>
<path d="M0 79.507C0 79.507 37.0953 68.221 46.9206 39.808C56.3448 12.187 94.4427 1 94.4427 1" stroke="#FB5D1A" stroke-width="2" stroke-miterlimit="10"/>
<path d="M0 115.147C0 115.147 63.3628 100.594 79.805 56.935C95.6457 14.86 160.312 1 160.312 1" stroke="#FB5D1A" stroke-width="2" stroke-miterlimit="10"/>
<path d="M0 150.886C0 150.886 89.53 132.967 112.79 74.062C134.947 17.434 226.081 1 226.081 1" stroke="#FB5D1A" stroke-width="2" stroke-miterlimit="10"/>
<path d="M0 186.526C0 186.526 115.798 165.34 145.674 91.189C174.248 20.107 291.95 1 291.95 1" stroke="#FB5D1A" stroke-width="2" stroke-miterlimit="10"/>
<path d="M0 222.166C0 222.166 142.065 197.713 178.659 108.217C213.549 22.78 357.819 1 357.819 1" stroke="#FB5D1A" stroke-width="2" stroke-miterlimit="10"/>
<path d="M0 257.905C0 257.905 168.232 230.086 211.544 125.443C252.85 25.354 423.689 1 423.689 1" stroke="#FB5D1A" stroke-width="2" stroke-miterlimit="10"/>
<path d="M0 293.545C0 293.545 194.5 262.459 244.528 142.471C292.151 28.027 489.558 1 489.558 1" stroke="#FB5D1A" stroke-width="2" stroke-miterlimit="10"/>
<path d="M0 329.185C0 329.185 220.767 294.832 277.513 159.598C331.452 30.7 555.327 1 555.327 1" stroke="#FB5D1A" stroke-width="2" stroke-miterlimit="10"/>
<path d="M0 364.924C0 364.924 246.934 327.304 310.398 176.725C370.853 33.274 621.196 1 621.196 1" stroke="#FB5D1A" stroke-width="2" stroke-miterlimit="10"/>
<path d="M0 400.564C0 400.564 273.202 359.578 343.382 193.852C410.154 35.947 687.065 1 687.065 1" stroke="#FB5D1A" stroke-width="2" stroke-miterlimit="10"/>
<path d="M0 436.204C0 436.204 299.469 391.951 376.267 210.88C449.455 38.62 752.934 1 752.934 1" stroke="#FB5D1A" stroke-width="2" stroke-miterlimit="10"/>
<path d="M0 471.943C0 471.943 325.637 424.423 409.252 228.106C488.756 41.194 818.704 1 818.704 1" stroke="#FB5D1A" stroke-width="2" stroke-miterlimit="10"/>
<path d="M0 507.583C0 507.583 351.904 456.796 442.136 245.233C528.057 43.867 884.573 1 884.573 1" stroke="#FB5D1A" stroke-width="2" stroke-miterlimit="10"/>
<path d="M0 543.322C0 543.322 378.172 489.169 475.121 262.36C567.358 46.54 950.442 1 950.442 1" stroke="#FB5D1A" stroke-width="2" stroke-miterlimit="10"/>
<path d="M0 578.962C0 578.962 404.339 521.542 508.005 279.487C606.659 49.114 1016.31 1 1016.31 1" stroke="#FB5D1A" stroke-width="2" stroke-miterlimit="10"/>
<path d="M0 614.602C0 614.602 430.606 553.915 540.99 296.515C645.96 51.787 1082.18 1 1082.18 1" stroke="#FB5D1A" stroke-width="2" stroke-miterlimit="10"/>
<path d="M0 650.341C0 650.341 456.874 586.288 573.975 313.741C685.261 54.46 1147.95 1 1147.95 1" stroke="#FB5D1A" stroke-width="2" stroke-miterlimit="10"/>
<path d="M0 685.981C0 685.981 483.041 618.661 606.859 330.769C724.562 57.034 1213.82 1 1213.82 1" stroke="#FB5D1A" stroke-width="2" stroke-miterlimit="10"/>
<path d="M0 721.621C0 721.621 509.309 651.034 639.844 347.896C763.863 59.707 1279.69 1 1279.69 1" stroke="#FB5D1A" stroke-width="2" stroke-miterlimit="10"/>
<path d="M0 757.36C0 757.36 535.576 683.506 672.728 365.023C803.164 62.38 1345.56 1 1345.56 1" stroke="#FB5D1A" stroke-width="2" stroke-miterlimit="10"/>
<path d="M0 793C0 793 561.743 715.78 705.713 382.15C842.465 64.954 1411.33 1 1411.33 1" stroke="#FB5D1A" stroke-width="2" stroke-miterlimit="10"/>
<path d="M1440 750.132C1440 750.132 1429.17 758.151 1426.06 771.219C1422.96 784.386 1411.43 792.9 1411.43 792.9" stroke="#FB5D1A" stroke-width="2" stroke-miterlimit="10"/>
<path d="M1440 714.493C1440 714.493 1402.9 725.779 1393.08 754.192C1383.66 781.813 1345.56 793 1345.56 793" stroke="#FB5D1A" stroke-width="2" stroke-miterlimit="10"/>
<path d="M1440 678.853C1440 678.853 1376.64 693.406 1360.19 737.065C1344.25 779.14 1279.69 793 1279.69 793" stroke="#FB5D1A" stroke-width="2" stroke-miterlimit="10"/>
<path d="M1440 643.114C1440 643.114 1350.47 661.033 1327.21 719.938C1305.05 776.467 1213.82 793 1213.82 793" stroke="#FB5D1A" stroke-width="2" stroke-miterlimit="10"/>
<path d="M1440 607.474C1440 607.474 1324.2 628.66 1294.33 702.811C1265.75 773.893 1148.05 793 1148.05 793" stroke="#FB5D1A" stroke-width="2" stroke-miterlimit="10"/>
<path d="M1440 571.735C1440 571.735 1297.93 596.188 1261.34 685.684C1226.35 771.22 1082.18 793 1082.18 793" stroke="#FB5D1A" stroke-width="2" stroke-miterlimit="10"/>
<path d="M1440 536.094C1440 536.094 1271.77 563.913 1228.46 668.556C1187.15 768.546 1016.41 792.999 1016.41 792.999" stroke="#FB5D1A" stroke-width="2" stroke-miterlimit="10"/>
<path d="M1440 500.455C1440 500.455 1245.5 531.541 1195.47 651.529C1147.75 765.973 950.442 793 950.442 793" stroke="#FB5D1A" stroke-width="2" stroke-miterlimit="10"/>
<path d="M1440 464.716C1440 464.716 1219.23 499.069 1162.49 634.303C1108.45 763.3 884.573 793 884.573 793" stroke="#FB5D1A" stroke-width="2" stroke-miterlimit="10"/>
<path d="M1440 429.076C1440 429.076 1193.07 466.696 1129.6 617.275C1069.15 760.627 818.704 793 818.704 793" stroke="#FB5D1A" stroke-width="2" stroke-miterlimit="10"/>
<path d="M1440 393.436C1440 393.436 1166.8 434.422 1096.62 600.148C1029.85 758.053 752.935 793 752.935 793" stroke="#FB5D1A" stroke-width="2" stroke-miterlimit="10"/>
<path d="M1440 357.696C1440 357.696 1140.53 401.949 1063.73 583.02C990.545 755.379 687.065 792.999 687.065 792.999" stroke="#FB5D1A" stroke-width="2" stroke-miterlimit="10"/>
<path d="M1440 322.056C1440 322.056 1114.36 369.576 1030.75 565.893C951.244 752.805 621.196 792.999 621.196 792.999" stroke="#FB5D1A" stroke-width="2" stroke-miterlimit="10"/>
<path d="M1440 286.417C1440 286.417 1088.1 337.204 997.864 548.767C911.943 750.133 555.327 793 555.327 793" stroke="#FB5D1A" stroke-width="2" stroke-miterlimit="10"/>
<path d="M1440 250.678C1440 250.678 1061.83 304.831 964.879 531.64C872.642 747.46 489.558 793 489.558 793" stroke="#FB5D1A" stroke-width="2" stroke-miterlimit="10"/>
<path d="M1440 215.038C1440 215.038 1035.66 272.458 931.995 514.513C833.341 744.886 423.689 793 423.689 793" stroke="#FB5D1A" stroke-width="2" stroke-miterlimit="10"/>
<path d="M1440 179.398C1440 179.398 1009.39 240.085 899.01 497.485C794.04 742.213 357.819 793 357.819 793" stroke="#FB5D1A" stroke-width="2" stroke-miterlimit="10"/>
<path d="M1440 143.659C1440 143.659 983.126 207.712 866.025 480.258C754.739 739.539 291.95 792.999 291.95 792.999" stroke="#FB5D1A" stroke-width="2" stroke-miterlimit="10"/>
<path d="M1440 108.019C1440 108.019 956.959 175.339 833.141 463.231C715.438 736.966 226.081 793 226.081 793" stroke="#FB5D1A" stroke-width="2" stroke-miterlimit="10"/>
<path d="M1440 72.3789C1440 72.3789 930.691 142.966 800.156 446.104C676.137 734.293 160.312 793 160.312 793" stroke="#FB5D1A" stroke-width="2" stroke-miterlimit="10"/>
<path d="M1440 36.6401C1440 36.6401 904.424 110.494 767.271 428.977C636.736 731.62 94.4427 793 94.4427 793" stroke="#FB5D1A" stroke-width="2" stroke-miterlimit="10"/>
<path d="M1440 1C1440 1 878.257 78.22 734.287 411.85C597.435 729.046 28.5734 793 28.5734 793" stroke="#FB5D1A" stroke-width="2" stroke-miterlimit="10"/>
</g>
</svg>
