<svg width="117" height="40" viewBox="0 0 117 40" fill="none" xmlns="http://www.w3.org/2000/svg">
<path d="M39.7853 13.9243C39.2664 12.381 38.5662 10.9048 37.6995 9.52648C37.1907 8.72406 36.6286 7.95663 36.0172 7.22936C35.8605 7.04919 35.711 6.86902 35.5489 6.68886L35.0644 6.16818L34.56 5.66912C34.3907 5.50336 34.2142 5.34662 34.0395 5.18627C31.2362 2.6645 27.7839 0.977046 24.0723 0.314521C20.3608 -0.348005 16.538 0.0407959 13.0357 1.43701L12.3927 1.69645C12.182 1.79013 11.973 1.89283 11.7641 1.99192L11.4507 2.14146L11.1445 2.30541C10.9427 2.41531 10.7356 2.51981 10.5357 2.63691C9.73707 3.10108 8.9688 3.61559 8.23553 4.17734C7.51014 4.74523 6.82243 5.35969 6.17675 6.01684C6.01284 6.17899 5.86336 6.35375 5.70486 6.5213L5.4725 6.77534C5.39684 6.86182 5.32479 6.9555 5.25094 7.03838C5.10324 7.21855 4.95555 7.38971 4.81145 7.56987L4.39538 8.11037C3.85161 8.85345 3.36048 9.63368 2.92559 10.4453L2.76168 10.748L2.6104 11.0561C2.51134 11.2615 2.40505 11.4651 2.31319 11.6741C2.13307 12.0939 1.95296 12.51 1.79446 12.9352C1.63595 13.3604 1.49727 13.7982 1.35857 14.2288C1.29373 14.4468 1.23967 14.6684 1.17843 14.8882L1.09197 15.2197L1.01992 15.553C0.97489 15.7765 0.924476 15.9981 0.881248 16.2215L0.774986 16.8953C0.744365 17.1241 0.713745 17.3493 0.69033 17.5763C0.666914 17.8033 0.636288 18.0267 0.621879 18.2537C0.340875 21.8795 1.07562 25.5118 2.74367 28.743L3.06249 29.3376C3.17417 29.5322 3.29304 29.7231 3.40652 29.9159L3.58663 30.2042L3.76675 30.4834C3.89463 30.6636 4.01352 30.8582 4.14501 31.0402C5.18113 32.5007 6.41606 33.8093 7.81405 34.9282C7.99417 35.0705 8.17428 35.1984 8.34359 35.3353L8.61019 35.5353C8.70025 35.6002 8.7903 35.6614 8.88576 35.7245C9.06588 35.8488 9.24602 35.9785 9.43694 36.0992L10.0061 36.4488C10.7681 36.906 11.5621 37.3076 12.3819 37.6505L12.6863 37.782L12.9979 37.8973C13.2068 37.973 13.4122 38.0558 13.6211 38.1261C14.0444 38.2576 14.4623 38.4018 14.8928 38.5045C16.6008 38.9545 18.3628 39.1667 20.1288 39.135C18.3727 39.0989 16.6301 38.82 14.9504 38.3063C14.5289 38.1874 14.12 38.0288 13.7094 37.8829C13.5058 37.8054 13.3059 37.7171 13.1042 37.6343L12.8016 37.5081L12.5062 37.3676C11.7168 37.0013 10.9542 36.5799 10.2241 36.1064L9.68371 35.7461C9.50359 35.62 9.33425 35.4867 9.15954 35.3587C9.07128 35.2939 8.97942 35.2308 8.89837 35.1642L8.6444 34.948C8.47869 34.8074 8.30578 34.6759 8.14367 34.5318C7.49261 33.9598 6.87837 33.3472 6.30465 32.6977C5.74012 32.0403 5.21791 31.3476 4.7412 30.624C4.62232 30.4438 4.51425 30.2636 4.40078 30.0835L4.23147 29.8078L4.07476 29.525C3.97209 29.334 3.86581 29.1484 3.76675 28.9574L3.48397 28.3773C2.02498 25.2578 1.46365 21.7934 1.86291 18.3727C1.88452 18.1601 1.92234 17.9511 1.95116 17.7403C1.97998 17.5295 2.00519 17.3187 2.04842 17.1115L2.17449 16.4881C2.22312 16.2809 2.27716 16.0755 2.3276 15.8701L2.40685 15.5621L2.49871 15.2576C2.56175 15.0558 2.61939 14.8522 2.67882 14.6504C2.82472 14.2522 2.95803 13.8505 3.13094 13.4649C3.30386 13.0794 3.47496 12.692 3.65508 12.3101C3.74874 12.1299 3.85323 11.9371 3.95229 11.7515L4.10177 11.4723L4.26568 11.202C4.69594 10.4756 5.1775 9.78078 5.70666 9.12291L6.10833 8.64366C6.24522 8.48512 6.38931 8.33198 6.52801 8.17523C6.60005 8.09776 6.66848 8.01849 6.74053 7.94282L6.96209 7.71941C7.11339 7.57167 7.25387 7.41673 7.41057 7.2762C8.02066 6.7015 8.66744 6.16708 9.34685 5.67632C10.0289 5.19167 10.7412 4.75116 11.4795 4.3575C11.6596 4.25841 11.8541 4.17734 12.0397 4.08005L12.3206 3.94312L12.6088 3.82061C12.7998 3.73953 12.9889 3.65485 13.1834 3.57738L13.767 3.35938C14.5494 3.08203 15.3505 2.86107 16.1644 2.69817L16.4688 2.63331C16.5697 2.61169 16.6723 2.60088 16.775 2.58286L17.3874 2.48557L18.3132 2.38828L18.623 2.37027C20.2715 2.26143 21.9271 2.38271 23.5421 2.7306C24.3444 2.9042 25.1335 3.13418 25.9035 3.41884C26.6706 3.70468 27.4174 4.04237 28.1388 4.42957C29.5769 5.20315 30.9003 6.17337 32.0708 7.31223C32.2131 7.45637 32.3608 7.5969 32.5013 7.74283L32.9156 8.18964L33.3136 8.64366C33.4451 8.79681 33.5658 8.95896 33.6937 9.1175C34.1906 9.75635 34.6437 10.4281 35.0499 11.1282C35.6514 12.172 36.1422 13.2758 36.5143 14.4216L34.7383 14.6955L39.1099 20.1473L41.6441 13.6379L39.7853 13.9243Z" fill="#FB5D1A"/>
<path fill-rule="evenodd" clip-rule="evenodd" d="M16.4345 16.7721C16.7227 16.5793 16.8685 16.7127 17.0469 16.7721L16.5948 18.2945C16.5948 18.2945 16.2057 17.7036 16.2345 17.5594C16.2633 17.4153 16.4435 16.7721 16.4435 16.7721H16.4345Z" fill="#FB5D1A"/>
<path fill-rule="evenodd" clip-rule="evenodd" d="M22.8073 16.7725C22.447 16.6139 22.3353 16.7112 22.193 16.7725L22.656 18.2949C22.656 18.2949 23.045 17.7039 23.0162 17.5598C22.9874 17.4157 22.8073 16.7725 22.8073 16.7725Z" fill="#FB5D1A"/>
<path fill-rule="evenodd" clip-rule="evenodd" d="M16.8059 15.4025L16.5537 20.049L20.2678 25.3026L24.3169 19.7355L22.8111 19.7895L22.3301 15.3538L19.7436 17.6095L16.8059 15.4025Z" fill="#FB5D1A"/>
<path fill-rule="evenodd" clip-rule="evenodd" d="M22.3894 15.684L22.4182 16.5849C22.1204 17.2722 21.7115 17.9059 21.2078 18.4604C20.8188 18.873 20.2063 19.3198 19.6065 19.3252C19.0067 19.3306 18.5258 18.8117 17.9639 18.4748C17.4523 17.8723 17.0428 17.19 16.7516 16.4551L16.8669 15.6048C16.8669 15.6048 17.7333 16.5272 17.7333 16.6137C17.7333 16.7002 18.0935 17.0605 18.3097 17.3199C18.5258 17.5794 18.2088 17.6803 18.814 17.7812C19.4192 17.8821 19.6786 17.9613 19.9235 17.9271C20.1685 17.8929 19.9956 18.0568 20.2424 17.7974C20.4891 17.5379 20.3144 17.7667 20.5161 17.5073C20.7179 17.2479 20.6026 17.2911 20.8908 17.1037C21.1097 16.974 21.3128 16.8192 21.496 16.6425C21.6761 16.4623 21.5536 16.6569 21.7698 16.3687C21.9859 16.0804 21.8418 16.1885 21.9859 16.0804C22.13 15.9723 22.2309 15.9002 22.2309 15.9002L22.3894 15.684Z" fill="#FB5D1A"/>
<path fill-rule="evenodd" clip-rule="evenodd" d="M23.0627 8.19832L23.1888 10.7206C23.2081 10.655 23.244 10.5953 23.2929 10.5474C23.3418 10.4994 23.4021 10.4648 23.4682 10.4467C23.5342 10.4287 23.6038 10.4278 23.6703 10.4442C23.7368 10.4606 23.7979 10.4938 23.848 10.5405C23.9075 10.7026 23.8786 11.108 23.8246 11.6089C23.7832 12.0106 23.7579 12.452 23.6175 12.7565C23.4373 13.1961 23.1384 13.3799 22.897 13.5871C22.8574 14.5834 22.6322 15.0014 22.5367 15.6986C22.2449 16.4932 21.6019 17.1688 20.8166 17.9723C20.4848 18.1938 20.1051 18.3334 19.7089 18.3795C19.2338 18.3658 18.7712 18.2252 18.3688 17.9723C17.6321 17.3616 17.216 16.6517 16.7243 15.9329C16.4775 15.1437 16.1101 14.6086 15.9804 13.7709C15.5319 13.6105 15.341 13.2304 15.0996 12.7944C14.8474 12.162 14.9393 11.6179 14.9681 10.9657C15.123 10.7423 15.2527 10.672 15.4274 10.9657L15.2473 10.1207C15.0672 9.19284 15.0149 8.31903 15.9462 7.93528L18.4228 6.87229L22.1225 6.74077C22.5493 7.13714 23.1041 7.43441 23.0537 8.19832H23.0627Z" fill="#FB5D1A"/>
<path fill-rule="evenodd" clip-rule="evenodd" d="M23.1928 10.3339L22.7047 11.8419C22.702 11.8513 22.6973 11.86 22.6909 11.8674C22.6845 11.8748 22.6765 11.8806 22.6676 11.8846C22.6586 11.8885 22.6489 11.8905 22.6392 11.8903C22.6294 11.89 22.6198 11.8877 22.611 11.8833C22.1968 11.6906 20.8098 11.8833 19.9092 12.0635C19.814 12.081 19.7229 12.1165 19.6409 12.168L19.4842 12.2653C19.4735 12.2724 19.461 12.2761 19.4481 12.2761L18.9708 12.2851C18.9615 12.2853 18.9523 12.2837 18.9436 12.2803C18.9349 12.2769 18.927 12.2718 18.9204 12.2653C18.7876 12.1389 18.6151 12.0625 18.4322 12.0491C17.9855 12.0191 17.5389 12.0029 17.0922 12.0005C16.8688 12.0005 16.6437 12.0005 16.4203 12.0005C16.2402 12.0005 16.0475 11.977 15.916 12.1248L15.5215 10.7663C15.4804 10.7898 15.4423 10.8183 15.408 10.851C15.3973 10.859 15.3886 10.8695 15.3828 10.8816C15.3775 10.8992 15.3775 10.918 15.3828 10.9357L15.9394 12.7644C15.9628 12.8508 16.0259 12.8689 16.0601 12.9445C16.0888 13.099 16.1544 13.2441 16.2513 13.3677C16.3482 13.4913 16.4736 13.5897 16.6167 13.6544C16.625 13.6559 16.6335 13.6559 16.6419 13.6544C17.2339 13.7543 17.8379 13.7616 18.4322 13.676C18.491 13.6689 18.5476 13.6491 18.598 13.618C18.6483 13.5869 18.6914 13.5452 18.7241 13.4958C18.8651 13.2514 18.9758 12.9906 19.0537 12.7193C19.0585 12.7056 19.0676 12.6936 19.0795 12.6853C19.0915 12.6769 19.1057 12.6724 19.1203 12.6725H19.4355C19.4492 12.6723 19.4626 12.6764 19.4739 12.6842C19.4851 12.6919 19.4938 12.7029 19.4986 12.7157C19.5999 12.9689 19.7203 13.2141 19.8588 13.449C19.8788 13.4841 19.9062 13.5145 19.9392 13.5378C19.9722 13.5612 20.01 13.577 20.0497 13.5841C20.7584 13.7347 21.4939 13.7012 22.186 13.4868C22.299 13.4522 22.3948 13.3763 22.4543 13.2742C22.5518 13.085 22.6094 12.8777 22.6236 12.6653C22.6261 12.6494 22.6336 12.6349 22.6453 12.6238L22.6831 12.5878C22.8052 12.4754 22.89 12.3282 22.9262 12.1662L23.2865 10.5753C23.2928 10.5597 23.2928 10.5423 23.2865 10.5267L23.1928 10.3339Z" fill="#FB5D1A"/>
<path fill-rule="evenodd" clip-rule="evenodd" d="M18.7095 12.4487C18.7005 12.4367 18.6895 12.4263 18.6771 12.418C18.5988 12.3656 18.5105 12.33 18.4177 12.3135C17.7458 12.1766 17.0416 12.2307 16.3625 12.2613C16.3192 12.2636 16.2784 12.2824 16.2486 12.314C16.2188 12.3455 16.2021 12.3872 16.2022 12.4306C16.1986 12.6269 16.2409 12.8213 16.3256 12.9983C16.4104 13.1753 16.5352 13.3301 16.6903 13.4504C17.2481 13.5548 17.8209 13.5487 18.3762 13.4324C18.4362 13.4221 18.4909 13.3916 18.5312 13.3459C18.7293 13.1063 18.7311 12.8054 18.7221 12.5063C18.7258 12.4897 18.7258 12.4725 18.7221 12.4559C18.7221 12.4559 18.7113 12.4505 18.7095 12.4487Z" fill="#FB5D1A"/>
<path fill-rule="evenodd" clip-rule="evenodd" d="M19.7705 12.4353C19.7937 12.3884 19.8285 12.3483 19.8718 12.319C19.915 12.2896 19.9652 12.272 20.0173 12.2677C20.6931 12.1335 21.3798 12.0617 22.0688 12.0533C22.168 12.0521 22.2671 12.0618 22.3642 12.0821C22.3784 12.0841 22.3916 12.0904 22.402 12.1002C22.4127 12.1147 22.4172 12.1328 22.4146 12.1506C22.4146 12.2533 22.4146 12.3542 22.4146 12.4569C22.4237 12.6914 22.365 12.9235 22.2453 13.1253C22.2118 13.1768 22.1652 13.2184 22.1103 13.246C22.0777 13.2592 22.0439 13.2688 22.0094 13.2748C21.4194 13.4135 20.8091 13.444 20.2082 13.3649C20.1812 13.3618 20.1549 13.3539 20.1307 13.3415C20.1065 13.3262 20.0851 13.3067 20.0677 13.2839C19.9133 13.0964 19.8114 12.8714 19.7723 12.6317C19.7624 12.5768 19.7624 12.5207 19.7723 12.4659L19.7705 12.4353Z" fill="#FB5D1A"/>
<path fill-rule="evenodd" clip-rule="evenodd" d="M19.7867 11.9498C20.4352 11.476 21.6006 11.0148 21.7537 11.0382C21.9115 11.0382 22.0692 11.049 22.2255 11.0706L22.4381 11.1193C22.4463 11.1289 22.4525 11.1402 22.4563 11.1523C22.46 11.1645 22.4612 11.1773 22.4599 11.1899C22.4585 11.2026 22.4546 11.2148 22.4484 11.2259C22.4422 11.237 22.4338 11.2467 22.4237 11.2544C22.3601 11.2969 22.2872 11.3234 22.2111 11.3319L21.9644 11.3012C21.5449 11.3682 21.1477 11.535 20.8062 11.7877L19.7867 11.9498Z" fill="#FB5D1A"/>
<path fill-rule="evenodd" clip-rule="evenodd" d="M18.5761 11.9243C17.8773 11.5261 16.6651 11.1838 16.5156 11.2199C16.3587 11.2312 16.2028 11.2535 16.0491 11.2865L15.8437 11.346C15.837 11.3561 15.8324 11.3676 15.8303 11.3796C15.8282 11.3916 15.8286 11.4039 15.8314 11.4157C15.8343 11.4276 15.8396 11.4387 15.847 11.4484C15.8544 11.4581 15.8637 11.4662 15.8744 11.4721C15.9415 11.508 16.0162 11.5277 16.0923 11.5297L16.3355 11.4793C16.7609 11.5102 17.174 11.6364 17.5441 11.8486L18.5761 11.9243Z" fill="#FB5D1A"/>
<path fill-rule="evenodd" clip-rule="evenodd" d="M23.4285 10.3976L23.5744 9.43551C23.7545 8.67521 23.877 7.94734 23.6464 7.43927C23.569 6.74202 23.6248 6.02136 22.7278 5.47185C21.6723 4.36202 20.2638 3.93323 18.6643 3.87017L18.9273 4.2305C17.9456 3.92062 16.6362 4.57642 15.3879 5.36735L15.9553 5.18719C14.9953 5.7403 14.7305 6.62852 14.1919 7.37441L14.3721 7.32937C14.3749 7.92781 14.4678 8.52242 14.6476 9.0932L14.7359 8.88961C14.8043 9.51479 15.1466 9.95619 15.2889 10.7687L15.4347 11.0012L15.6383 10.5201C15.5843 9.9652 15.532 9.79044 15.478 9.43912C15.6329 8.9851 15.8202 8.64278 16.0544 8.53108C17.4089 8.8824 18.8354 8.78691 20.307 8.40136C20.8366 7.96896 21.5084 7.9077 22.038 7.82663C22.3321 8.07457 22.5469 8.40348 22.6558 8.7725C22.7854 9.19049 22.7476 9.61928 22.9007 10.0337L23.2591 10.7327L23.4285 10.3976Z" fill="#FB5D1A"/>
<path fill-rule="evenodd" clip-rule="evenodd" d="M15.2999 11.2508C15.145 11.24 15.2134 12.6182 15.3809 12.6921C15.5204 12.815 15.6493 12.9494 15.7664 13.0939C15.6619 12.53 15.48 11.8868 15.2999 11.2508Z" fill="#FB5D1A"/>
<path fill-rule="evenodd" clip-rule="evenodd" d="M23.0288 12.8699C23.1458 12.7232 23.2754 12.587 23.416 12.4627C23.5817 12.3961 23.6502 11.0214 23.4953 11.0214C23.3152 11.6664 23.1332 12.3078 23.0288 12.8699Z" fill="#FB5D1A"/>
<path fill-rule="evenodd" clip-rule="evenodd" d="M33.6469 32.8598C33.5223 33.8177 33.3449 34.768 33.1156 35.7064C32.6375 36.3794 32.0832 36.9948 31.4639 37.5405C30.8352 38.1188 30.1724 38.6719 29.56 39.2611L20.2676 38.9746V38.9116L20.1271 32.031L20.0173 26.9305L19.9776 24.8874L19.9434 23.2407V23.0659L19.9614 23.0479L20.0029 23.0119L20.0731 22.947L21.451 21.6858L21.6311 20.7688L22.7785 19.4067L23.1153 19.005L23.2738 17.6069L23.2846 17.5492L24.7634 18.2915L26.6421 18.9833L27.6544 19.468L28.5549 19.8481L30.176 20.6661L30.1904 20.6805C30.291 20.7599 30.3828 20.8499 30.4642 20.949C30.8244 21.3958 31.1162 22.0948 31.3648 22.947C31.9052 24.8658 32.2258 27.5665 32.7589 29.9375C32.9613 30.9376 33.2587 31.9161 33.6469 32.8598Z" fill="#FB5D1A"/>
<path fill-rule="evenodd" clip-rule="evenodd" d="M20.7681 38.891L20.2656 38.909L18.142 38.9828L17.5422 39.0027L10.1573 39.2603C9.97716 39.0945 9.80963 38.9306 9.62951 38.7684C9.53344 38.682 9.43799 38.5973 9.34313 38.5144C8.93786 38.1541 8.52901 37.7937 8.13634 37.4334C7.56121 36.9185 7.0469 36.3394 6.60351 35.7074C6.42339 34.9471 6.2631 34.185 6.14602 33.4229C6.119 33.2427 6.09198 33.05 6.07217 32.8626C6.11539 32.7671 6.15501 32.6698 6.19463 32.5689C6.50312 31.7856 6.74417 30.9773 6.91512 30.1529C7.44287 27.7495 7.66441 25.0488 8.35607 22.9462C8.56795 22.265 8.87736 21.6181 9.27468 21.0257C9.35754 20.9103 9.44399 20.7968 9.53585 20.6923C9.54069 20.6837 9.54678 20.6758 9.55389 20.6689L11.1569 19.705L11.7711 19.4312L13.095 18.9862C13.956 18.6601 14.4495 18.3736 14.8962 18.2943L15.8743 17.6511L16.0004 17.5394L16.5947 19.3105L16.71 19.6708L18.5599 21.5643L18.5761 22.1319L19.628 22.8796L19.7378 22.9534L19.8765 23.0525L19.9054 23.0741H19.9162L19.9342 23.085V23.2399L20.7681 38.891Z" fill="#FB5D1A"/>
<path fill-rule="evenodd" clip-rule="evenodd" d="M22.8019 16.7651C22.6848 18.3866 22.1949 19.7432 21.1988 20.7576V21.7178L19.8587 23.1177L21.4798 21.871C21.6599 21.5467 21.6239 21.5107 21.7176 20.844C22.0184 20.4963 22.2831 20.5305 22.6884 20.6062L23.6664 22.4691C23.7421 21.1179 23.8718 19.1595 23.3494 17.6046L22.8019 16.7651Z" fill="#FB5D1A"/>
<path fill-rule="evenodd" clip-rule="evenodd" d="M11.8182 26.8729H11.6146L11.2886 24.3415C11.1587 23.8542 10.9668 23.3855 10.7176 22.9471C10.3183 22.2466 9.82969 21.601 9.26409 21.0265C9.34695 20.9112 9.4334 20.7977 9.52526 20.6932C10.1386 21.371 10.6568 22.1292 11.0653 22.9471C11.2518 23.3369 11.3822 23.7512 11.4525 24.1776L11.8182 26.8729Z" fill="#FB5D1A"/>
<path fill-rule="evenodd" clip-rule="evenodd" d="M30.4642 20.949C29.8511 21.5473 29.3132 22.2185 28.8628 22.9472C28.5763 23.4023 28.3584 23.897 28.2161 24.4156L28.0919 26.873L27.7587 26.9289L28.0522 24.2084C28.1303 23.7654 28.2832 23.3389 28.5044 22.9472C28.9222 22.1779 29.5544 21.423 30.1831 20.6915H30.1921C30.2915 20.7677 30.3828 20.8538 30.4642 20.949Z" fill="#FB5D1A"/>
<path fill-rule="evenodd" clip-rule="evenodd" d="M19.9576 23.0334L20.1521 26.9196L19.8351 26.9484L19.7703 23.0568L19.9576 23.0334Z" fill="#FB5D1A"/>
<path fill-rule="evenodd" clip-rule="evenodd" d="M16.4399 16.7651C16.5552 18.3866 17.7764 20.1306 18.7707 21.1449L18.7221 22.0277L19.9361 23.1376L18.315 22.1791C18.1349 21.8566 18.1781 21.5575 18.1655 21.3341C18.0357 21.1765 17.8649 21.058 17.6719 20.9915C17.479 20.925 17.2714 20.9133 17.0722 20.9575C16.6813 21.7214 16.222 22.3664 15.9302 22.9394C15.8563 21.5881 15.3664 19.1649 15.8888 17.6155L16.4399 16.7651Z" fill="#FB5D1A"/>
<path fill-rule="evenodd" clip-rule="evenodd" d="M21.7661 7.97104C21.8811 7.95945 21.997 7.98304 22.0983 8.03869C22.1996 8.09434 22.2816 8.17944 22.3335 8.28273C22.5329 8.6983 22.688 9.1337 22.7964 9.58173C22.8793 8.68089 22.4236 7.23956 21.9066 7.18371C19.8299 6.31531 17.5099 7.02156 15.2422 7.67557C15.4223 7.94041 15.7123 7.76205 16.0005 7.83411L15.0639 8.96916L16.0544 8.53108C17.3801 8.94726 18.8104 8.81962 20.3774 8.42866C20.7972 8.1676 21.2734 8.0107 21.7661 7.97104Z" fill="#FB5D1A"/>
<path d="M29.9239 39.6317H9.69283C9.35895 39.6165 9.04018 39.4882 8.78881 39.2679C8.53744 39.0475 8.36843 38.7483 8.30953 38.4192L5.99499 24.759C5.82748 23.768 6.35522 22.9465 7.17116 22.9465H32.4456C33.2633 22.9465 33.7893 23.768 33.6218 24.759L31.3144 38.4192C31.2552 38.7494 31.0852 39.0496 30.8324 39.2701C30.5795 39.4905 30.259 39.6181 29.9239 39.6317Z" fill="#FB5D1A"/>
<path d="M17.5425 33.2824C17.5437 33.2231 17.5217 33.1656 17.4813 33.1221C17.44 33.0791 17.3934 33.0415 17.3426 33.0104L15.4171 31.7042L17.1247 30.2845C17.1752 30.2456 17.219 30.1988 17.2543 30.1458C17.2912 30.088 17.306 30.0189 17.2958 29.9512L17.2399 29.2305C17.2392 29.1754 17.2187 29.1223 17.1823 29.081C17.1587 29.0528 17.1254 29.0346 17.089 29.03C17.0527 29.0253 17.0159 29.0345 16.986 29.0557C16.9583 29.073 16.9323 29.0929 16.9085 29.1152L14.5129 31.2213C14.4578 31.2731 14.4121 31.3341 14.3778 31.4015C14.3494 31.4667 14.3424 31.5393 14.358 31.6087L14.3922 31.8087C14.4034 31.8811 14.4332 31.9494 14.4787 32.0069C14.53 32.0704 14.5907 32.1257 14.6588 32.1708L17.3156 33.9328C17.3374 33.9497 17.3617 33.963 17.3876 33.9725C17.4098 33.9825 17.4336 33.9886 17.4579 33.9905C17.4754 33.9912 17.4928 33.9883 17.5092 33.9821C17.5256 33.9759 17.5406 33.9665 17.5533 33.9545C17.5672 33.9401 17.5773 33.9226 17.583 33.9035C17.5886 33.8843 17.5896 33.8641 17.5857 33.8446L17.5425 33.2824Z" fill="#FB5D1A"/>
<path d="M21.6941 27.6727C21.6806 27.6536 21.6628 27.638 21.6421 27.627C21.6215 27.616 21.5986 27.6101 21.5752 27.6096H21.0258C20.9936 27.6081 20.9614 27.614 20.9318 27.6268C20.9021 27.6396 20.8758 27.659 20.8547 27.6835C20.8163 27.7292 20.7837 27.7794 20.7575 27.833L20.2567 29.2203L20.0766 29.7248L18.2754 34.7478C18.2696 34.772 18.2666 34.7968 18.2664 34.8217C18.2668 34.8406 18.271 34.8593 18.2787 34.8767C18.2865 34.894 18.2976 34.9096 18.3115 34.9226C18.3382 34.948 18.3736 34.9621 18.4105 34.9622H18.8392C18.8645 34.965 18.8901 34.9621 18.9141 34.9537C18.9381 34.9453 18.9599 34.9316 18.9779 34.9135C19.0048 34.8866 19.0273 34.8556 19.0445 34.8217L20.372 31.3877L21.7103 27.9465C21.726 27.9105 21.7358 27.8722 21.7391 27.833C21.7459 27.7757 21.7297 27.718 21.6941 27.6727Z" fill="#FB5D1A"/>
<path d="M25.2407 31.3962C25.2043 31.3291 25.1575 31.2683 25.102 31.216L22.719 29.1152C22.6959 29.093 22.6705 29.073 22.6434 29.0558C22.6176 29.039 22.5877 29.0297 22.5569 29.0288C22.5348 29.0287 22.513 29.0334 22.4928 29.0424C22.4726 29.0514 22.4546 29.0645 22.4398 29.081C22.4022 29.1219 22.3805 29.175 22.3786 29.2306L22.3264 29.9512C22.3156 30.0187 22.3297 30.0879 22.366 30.1458C22.4014 30.1988 22.4452 30.2457 22.4957 30.2845L24.2014 31.7042L22.2777 33.0104C22.2269 33.0416 22.1803 33.0791 22.139 33.1221C22.0994 33.1661 22.0776 33.2233 22.0778 33.2825L22.0346 33.8446C22.0318 33.8643 22.0335 33.8844 22.0394 33.9034C22.0453 33.9224 22.0554 33.9398 22.0688 33.9545C22.0815 33.9667 22.0964 33.9761 22.1128 33.9823C22.1293 33.9885 22.1467 33.9913 22.1643 33.9905C22.1909 33.989 22.2171 33.9829 22.2417 33.9725C22.2674 33.9627 22.2917 33.9493 22.3137 33.9329L24.9525 32.1655C25.0241 32.1216 25.088 32.0662 25.1416 32.0015C25.1864 31.9436 25.2161 31.8755 25.2281 31.8033L25.2623 31.6033C25.2757 31.5337 25.2682 31.4616 25.2407 31.3962Z" fill="#FB5D1A"/>
<path d="M8.69488 34.9658C8.77953 35.3424 8.85336 35.7189 8.93261 36.0973L9.15057 37.2305C9.18659 37.4197 9.22261 37.6089 9.25503 37.7981C9.27304 37.8899 9.28746 37.9944 9.30727 38.0755C9.33022 38.1609 9.36476 38.2427 9.40993 38.3187C9.50329 38.4685 9.63859 38.5875 9.799 38.661C9.87805 38.6984 9.96259 38.7227 10.0494 38.7331C10.1411 38.7396 10.2332 38.7396 10.3249 38.7331C11.0941 38.7331 11.865 38.7331 12.6341 38.7547L13.7887 38.78C14.1741 38.7962 14.5578 38.8052 14.9432 38.825C14.5578 38.8466 14.1741 38.8556 13.7887 38.87L12.6323 38.9115C11.8632 38.9277 11.0923 38.9313 10.3231 38.9331H10.179C10.1265 38.9333 10.0741 38.9291 10.0224 38.9205C9.91797 38.9065 9.81643 38.8761 9.72155 38.8304C9.53123 38.74 9.372 38.5952 9.26403 38.4142C9.2114 38.3236 9.17199 38.2259 9.14696 38.1242C9.12175 38.0197 9.11273 37.9314 9.09652 37.8341C9.0641 37.6449 9.03528 37.4539 9.00826 37.263L8.84975 36.1117C8.79392 35.7297 8.73811 35.3478 8.69488 34.9658Z" fill="#FB5D1A"/>
<path d="M52.9389 32.6743C52.531 32.9431 52.0512 33.0819 51.5628 33.0724C51.2292 33.0825 50.8978 33.0142 50.5954 32.8731C50.2929 32.732 50.0277 32.522 49.821 32.2599C49.3779 31.717 49.1564 30.9963 49.1564 30.0979C49.1564 29.1994 49.3779 28.4836 49.821 27.9503C50.029 27.6901 50.2947 27.4819 50.5969 27.3422C50.8992 27.2024 51.2299 27.1349 51.5628 27.1449C52.0498 27.1358 52.5287 27.2713 52.9389 27.5341C53.337 27.7944 53.6442 28.1722 53.8179 28.6151H57.2527C57.0949 27.7612 56.7491 26.9532 56.2405 26.2495C55.7401 25.5701 55.075 25.0294 54.3078 24.6785C53.4592 24.2963 52.5365 24.1068 51.606 24.1236C50.5421 24.0985 49.491 24.3592 48.562 24.8784C47.7019 25.3735 47.0046 26.1085 46.5554 26.9936C46.0906 27.9621 45.8493 29.0227 45.8493 30.097C45.8493 31.1713 46.0906 32.2319 46.5554 33.2003C46.6365 33.3553 46.7229 33.5048 46.8166 33.649V33.3589H49.0771V34.1913H51.3376V36.065C51.4259 36.065 51.5177 36.065 51.606 36.065C53.1226 36.065 54.3756 35.6584 55.3651 34.8453C56.3654 34.018 57.0353 32.8588 57.2527 31.5788H53.8179C53.6448 32.0259 53.3378 32.4085 52.9389 32.6743Z" fill="#FB5D1A"/>
<path d="M65.3239 27.5881C65.4122 27.4783 65.4564 27.3396 65.4481 27.1989V25.3234C65.4512 25.2758 65.444 25.2282 65.4269 25.1837C65.4098 25.1392 65.3832 25.099 65.3491 25.0658C65.2809 25.0047 65.192 24.9718 65.1005 24.9739C65.0046 24.9846 64.9129 25.0193 64.8339 25.0748L58.7783 29.1826C58.6372 29.2726 58.5114 29.3845 58.4055 29.5141C58.3295 29.6265 58.2916 29.7604 58.2974 29.896V30.4437C58.2939 30.5854 58.3349 30.7246 58.4145 30.8419C58.5135 30.9733 58.6355 31.0857 58.7747 31.1734L64.8303 35.2884C64.9094 35.3435 65.0011 35.3776 65.0969 35.3875C65.1429 35.3887 65.1887 35.3806 65.2314 35.3636C65.2741 35.3465 65.313 35.321 65.3455 35.2884C65.378 35.2559 65.4036 35.217 65.4206 35.1743C65.4376 35.1316 65.4458 35.0858 65.4445 35.0398V33.1462C65.4545 33.0157 65.4131 32.8864 65.3293 32.7859C65.2224 32.6782 65.1054 32.5811 64.9799 32.4958L61.4495 30.1681L64.9835 27.8619C65.1097 27.7878 65.2244 27.6956 65.3239 27.5881Z" fill="#FB5D1A"/>
<path d="M74.4489 29.5213C74.3436 29.3891 74.2177 29.2747 74.076 29.1826L68.0204 25.0748C67.9414 25.0193 67.8497 24.9846 67.7538 24.9739C67.6623 24.9718 67.5734 25.0047 67.5052 25.0658C67.4711 25.099 67.4446 25.1392 67.4275 25.1837C67.4104 25.2282 67.4031 25.2758 67.4062 25.3234V27.2007C67.3979 27.3414 67.4422 27.4801 67.5305 27.5899C67.6299 27.6974 67.7446 27.7896 67.8709 27.8637L71.4049 30.1699L67.8709 32.494C67.7454 32.5793 67.6284 32.6764 67.5215 32.7841C67.4376 32.8846 67.3962 33.0139 67.4062 33.1444V35.0362C67.4049 35.0822 67.4131 35.1279 67.4301 35.1707C67.4472 35.2134 67.4727 35.2523 67.5052 35.2848C67.5378 35.3173 67.5766 35.3429 67.6193 35.3599C67.6621 35.377 67.7078 35.3851 67.7538 35.3839C67.8496 35.3739 67.9414 35.3399 68.0204 35.2848L74.076 31.1644C74.2152 31.0767 74.3373 30.9643 74.4363 30.8329C74.5159 30.7156 74.5568 30.5764 74.5534 30.4347V29.9032C74.5602 29.768 74.5236 29.6342 74.4489 29.5213Z" fill="#FB5D1A"/>
<path d="M85.9784 27.0497C85.4892 26.1668 84.7505 25.448 83.8548 24.9832C82.8519 24.4723 81.7378 24.2184 80.6127 24.2445H75.9296V35.9931H80.6127C81.7408 36.0213 82.8573 35.7589 83.8548 35.231C84.7472 34.7459 85.4835 34.0175 85.9784 33.1303C86.4659 32.1911 86.7205 31.1483 86.7205 30.09C86.7205 29.0317 86.4659 27.9889 85.9784 27.0497ZM82.5868 32.2925C82.0332 32.8138 81.2755 33.0738 80.3137 33.0726H79.2023V27.0983H80.3137C81.2743 27.0983 82.032 27.3614 82.5868 27.8875C83.1415 28.4135 83.4207 29.1456 83.4243 30.0837C83.4243 31.0362 83.1451 31.7724 82.5868 32.2925Z" fill="#FB5D1A"/>
<path d="M95.7425 26.8491V24.2439H88.1775V35.9925H95.7425V33.3873H91.4449V31.2632H95.2436V28.7913H91.4449V26.8491H95.7425Z" fill="#FB5D1A"/>
<path d="M104.138 31.4297C104.912 31.2377 105.601 30.7941 106.096 30.1685C106.554 29.5531 106.793 28.8024 106.777 28.0353C106.787 27.355 106.615 26.6843 106.278 26.0931C105.93 25.5037 105.413 25.0328 104.794 24.7419C104.043 24.3957 103.222 24.228 102.396 24.2518H97.2358V35.9933H100.503V31.6693H100.835L103.209 35.9933H106.811L104.138 31.4297ZM102.113 29.4713H100.503V26.9994H102.113C102.484 26.9717 102.85 27.0908 103.133 27.3309C103.25 27.4515 103.34 27.5949 103.398 27.752C103.457 27.9092 103.483 28.0768 103.473 28.2443C103.473 29.0623 103.02 29.4713 102.113 29.4713Z" fill="#FB5D1A"/>
<path d="M116.298 30.716C115.969 30.2528 115.537 29.8723 115.037 29.6043C114.441 29.3034 113.825 29.0422 113.194 28.8224C112.681 28.6601 112.184 28.449 111.71 28.1918C111.567 28.1185 111.447 28.0067 111.363 27.8689C111.28 27.7311 111.237 27.5728 111.238 27.4117C111.229 27.3028 111.244 27.1933 111.281 27.0904C111.318 26.9876 111.376 26.8938 111.453 26.8154C111.619 26.674 111.833 26.6023 112.05 26.6154C112.182 26.6096 112.314 26.6302 112.438 26.676C112.561 26.7218 112.675 26.7918 112.771 26.882C112.976 27.105 113.096 27.3924 113.111 27.6946H116.613C116.537 26.5757 116.121 25.7037 115.352 25.0714V25.8605H113.101V25.0389H110.84V24.1741C110.499 24.2371 110.165 24.3355 109.844 24.4678C109.226 24.7118 108.691 25.1268 108.3 25.6641C107.939 26.2227 107.744 26.8721 107.737 27.5372C107.729 28.2024 107.91 28.8559 108.259 29.4224C108.579 29.8833 109.006 30.2593 109.504 30.5178C110.099 30.8077 110.714 31.0569 111.343 31.2637C111.872 31.4239 112.383 31.6382 112.868 31.9033C113.017 31.9816 113.141 32.1001 113.226 32.2453C113.311 32.3905 113.354 32.5566 113.349 32.7248C113.356 32.8385 113.338 32.9523 113.297 33.0584C113.256 33.1645 113.192 33.2603 113.11 33.3392C112.92 33.4916 112.681 33.568 112.438 33.5536C112.138 33.562 111.847 33.4556 111.624 33.2563C111.383 33.0128 111.247 32.6852 111.244 32.3429H107.769C107.847 33.544 108.327 34.473 109.21 35.13C110.093 35.7871 111.212 36.1138 112.569 36.1102C113.364 36.1313 114.152 35.9724 114.877 35.6453C115.474 35.3735 115.98 34.9357 116.336 34.3842C116.668 33.8518 116.841 33.2354 116.834 32.6077C116.862 31.936 116.674 31.2731 116.298 30.716Z" fill="#FB5D1A"/>
<path d="M113.832 19.2248H112.703V20.3545H113.832V19.2248Z" fill="#FB5D1A"/>
<path d="M115.324 21.6307L114.521 20.3627L113.253 21.1655L114.056 22.4335L115.324 21.6307Z" fill="#FB5D1A"/>
<path d="M112.825 20.9074L110.689 21.6491L111.431 23.7851L113.566 23.0433L112.825 20.9074Z" fill="#FB5D1A"/>
<path d="M48.3531 40H49.4825V38.8704H48.3531V40Z" fill="#FB5D1A"/>
<path d="M46.863 37.5909L47.6656 38.8589L48.9333 38.056L48.1307 36.788L46.863 37.5909Z" fill="#FB5D1A"/>
<path d="M49.3606 38.3211L51.496 37.5794L50.7544 35.4434L48.619 36.1852L49.3606 38.3211Z" fill="#FB5D1A"/>
<path d="M45.6837 8.84762V10.7051H48.9024V20.562H51.244V10.7051H54.4861V8.84762H45.6837Z" fill="#FB5D1A"/>
<path d="M61.5503 15.8831C62.4797 15.6826 63.1906 15.2844 63.6829 14.6886C64.1861 14.0586 64.448 13.2696 64.4214 12.4636C64.4214 11.3826 64.0648 10.5088 63.3515 9.84216C62.6382 9.17555 61.6013 8.84404 60.2408 8.84764H55.7702V20.5585H58.1118V15.9984H59.1403L61.8781 20.5621H64.4664L61.5503 15.8831ZM60.0409 14.3896H58.1118V10.8223H60.0355C60.7211 10.8223 61.2273 10.9796 61.5539 11.2943C61.7224 11.4682 61.8529 11.6753 61.9372 11.9023C62.0215 12.1293 62.0579 12.3713 62.0438 12.6131C62.0474 13.7986 61.3798 14.3908 60.0409 14.3896Z" fill="#FB5D1A"/>
<path d="M72.7991 8.84761L70.3117 13.9751L67.8224 8.84761H65.1368L69.1193 16.4632V20.562H71.4734V16.4632L75.4361 8.84761H72.7991Z" fill="#FB5D1A"/>
</svg>
